<svg width="85" height="40" viewBox="0 0 85 40" fill="none" xmlns="http://www.w3.org/2000/svg">
<g filter="url(#filter0_i_5317_969)">
<rect x="0.5" y="0.116211" width="84" height="39" rx="19.5" fill="#1A748E"/>
<path d="M33.124 21.8042C33.4013 22.0069 33.54 22.3269 33.54 22.7642C33.54 23.1909 33.444 23.5589 33.252 23.8682C33.0707 24.1669 32.7987 24.4335 32.436 24.6682C31.6573 25.1695 30.5853 25.4202 29.22 25.4202C27.8653 25.4202 26.8147 25.0682 26.068 24.3642C25.332 23.6495 24.964 22.6629 24.964 21.4042C24.964 19.6229 25.428 18.0549 26.356 16.7002C27.06 15.6975 28.0413 14.9829 29.3 14.5562C29.9507 14.3429 30.596 14.2362 31.236 14.2362C31.876 14.2362 32.3933 14.2789 32.788 14.3642C33.1827 14.4495 33.5293 14.5775 33.828 14.7482C34.4787 15.1215 34.804 15.6069 34.804 16.2042C34.804 16.7482 34.548 17.2229 34.036 17.6282C33.5667 17.9909 33.14 18.1722 32.756 18.1722C32.372 18.1722 32.1 18.1455 31.94 18.0922C31.9827 17.7082 32.004 17.3935 32.004 17.1482C32.004 16.8922 31.9987 16.6735 31.988 16.4922C31.9773 16.3109 31.9453 16.1349 31.892 15.9642C31.7853 15.5695 31.5667 15.3722 31.236 15.3722C30.916 15.3722 30.5907 15.5269 30.26 15.8362C29.94 16.1349 29.6413 16.5402 29.364 17.0522C28.7347 18.2149 28.42 19.4842 28.42 20.8602C28.42 21.5215 28.6067 22.0442 28.98 22.4282C29.3533 22.8015 29.94 22.9882 30.74 22.9882C31.3373 22.9882 31.9187 22.7909 32.484 22.3962C32.7293 22.2255 32.9427 22.0282 33.124 21.8042ZM42.9138 23.3402C42.9138 23.8095 43.1538 24.1135 43.6337 24.2522C43.5164 24.6469 43.2284 24.9509 42.7698 25.1642C42.3858 25.3455 41.9804 25.4362 41.5538 25.4362C41.1378 25.4362 40.8178 25.3775 40.5938 25.2602C40.3804 25.1535 40.2151 25.0095 40.0978 24.8282C39.9058 24.5509 39.8098 24.1509 39.8098 23.6282C39.8098 23.3189 39.8951 22.7375 40.0658 21.8842L40.2898 20.6682C40.4711 19.7402 40.5618 19.1055 40.5618 18.7642C40.5618 18.1669 40.3964 17.8682 40.0658 17.8682C39.6498 17.8682 39.3084 18.1722 39.0418 18.7802C38.9351 19.0149 38.8444 19.3082 38.7698 19.6602L37.6818 25.1162L34.4657 25.4362L36.7218 13.9162L39.9378 13.5962L39.8098 14.2362C39.5111 15.8789 39.2338 16.9775 38.9778 17.5322C39.5751 16.9349 40.4231 16.6362 41.5218 16.6362C42.6844 16.6362 43.3724 17.0202 43.5858 17.7882C43.6604 18.0335 43.6978 18.2629 43.6978 18.4762C43.6978 18.6895 43.6871 18.8815 43.6658 19.0522C43.6551 19.2122 43.6231 19.4415 43.5698 19.7402L43.3618 20.8922L42.9938 22.7002C42.9404 22.9455 42.9138 23.1589 42.9138 23.3402ZM45.6163 24.6362C45.3709 24.3589 45.1896 24.0015 45.0723 23.5642C44.9656 23.1269 44.9123 22.5509 44.9123 21.8362C44.9123 21.1215 45.0349 20.4389 45.2803 19.7882C45.5256 19.1375 45.8723 18.5775 46.3203 18.1082C47.2376 17.1269 48.4536 16.6362 49.9683 16.6362C50.5123 16.6362 50.9816 16.7269 51.3763 16.9082L54.1123 16.6362L52.9283 22.8762C52.8963 23.0042 52.8802 23.1855 52.8802 23.4202C52.8802 23.6549 52.9496 23.8469 53.0883 23.9962C53.2376 24.1455 53.4189 24.2309 53.6323 24.2522C53.5256 24.6149 53.2749 24.9029 52.8802 25.1162C52.4963 25.3295 52.0856 25.4362 51.6483 25.4362C51.2109 25.4362 50.8429 25.3509 50.5443 25.1802C50.2563 25.0202 50.0696 24.8015 49.9843 24.5242C49.8136 24.7909 49.5469 25.0095 49.1843 25.1802C48.8216 25.3509 48.3949 25.4362 47.9043 25.4362C47.4243 25.4362 46.9869 25.3722 46.5923 25.2442C46.1976 25.1162 45.8723 24.9135 45.6163 24.6362ZM48.9923 18.1402C48.8749 18.3322 48.7629 18.5935 48.6562 18.9242C48.5496 19.2442 48.4056 19.8415 48.2243 20.7162C48.0536 21.5802 47.9683 22.3215 47.9683 22.9402C47.9683 23.5589 48.0163 23.9589 48.1123 24.1402C48.2083 24.3215 48.3416 24.4122 48.5123 24.4122C48.8536 24.4122 49.1469 24.2522 49.3923 23.9322C49.6483 23.6015 49.8243 23.1482 49.9203 22.5722L50.7683 17.8842C50.5443 17.6922 50.2989 17.5962 50.0323 17.5962C49.7763 17.5962 49.5683 17.6389 49.4083 17.7242C49.2589 17.8095 49.1203 17.9482 48.9923 18.1402ZM55.2311 23.5162C55.2311 23.2282 55.3058 22.7215 55.4551 21.9962L56.3031 17.6762H55.3591L55.4231 17.1962C56.7031 16.8122 57.9618 16.1509 59.1991 15.2122H59.9671L59.5831 16.9562H60.8311L60.6871 17.6762H59.4551L58.6391 21.9962C58.5005 22.6575 58.4311 23.1002 58.4311 23.3242C58.4311 23.8362 58.6551 24.1455 59.1031 24.2522C58.9965 24.6149 58.7511 24.9029 58.3671 25.1162C57.9831 25.3295 57.5191 25.4362 56.9751 25.4362C56.4311 25.4362 56.0045 25.2655 55.6951 24.9242C55.3858 24.5829 55.2311 24.1135 55.2311 23.5162Z" fill="white"/>
</g>
<defs>
<filter id="filter0_i_5317_969" x="0.5" y="0.116211" width="88" height="43" filterUnits="userSpaceOnUse" color-interpolation-filters="sRGB">
<feFlood flood-opacity="0" result="BackgroundImageFix"/>
<feBlend mode="normal" in="SourceGraphic" in2="BackgroundImageFix" result="shape"/>
<feColorMatrix in="SourceAlpha" type="matrix" values="0 0 0 0 0 0 0 0 0 0 0 0 0 0 0 0 0 0 127 0" result="hardAlpha"/>
<feOffset dx="7" dy="4"/>
<feGaussianBlur stdDeviation="2"/>
<feComposite in2="hardAlpha" operator="arithmetic" k2="-1" k3="1"/>
<feColorMatrix type="matrix" values="0 0 0 0 0.42467 0 0 0 0 0.760329 0 0 0 0 0.968982 0 0 0 0.25 0"/>
<feBlend mode="normal" in2="shape" result="effect1_innerShadow_5317_969"/>
</filter>
</defs>
</svg>
