<svg width="227" height="40" viewBox="0 0 227 40" fill="none" xmlns="http://www.w3.org/2000/svg">
<g filter="url(#filter0_i_5317_977)">
<rect x="0.5" y="0.116211" width="226" height="39" rx="19.5" fill="#1A748E"/>
<path d="M30.74 23.9162C30.74 23.1695 30.8893 22.0495 31.188 20.5562H28.82L27.94 25.1162H24.596L26.628 14.5562H30.004L29.076 19.2762H31.444L32.324 14.5562H35.7C35.5507 15.3455 35.38 16.1829 35.188 17.0682L34.644 19.6762C34.2387 21.7029 34.036 23.1589 34.036 24.0442C34.036 24.4069 34.0947 24.6895 34.212 24.8922C33.6787 25.2549 33.0973 25.4362 32.468 25.4362C31.8493 25.4362 31.4067 25.2869 31.14 24.9882C30.8733 24.6895 30.74 24.3322 30.74 23.9162ZM41.2205 24.4442C40.7085 25.1055 39.8178 25.4362 38.5485 25.4362C37.8872 25.4362 37.3165 25.2389 36.8365 24.8442C36.3565 24.4389 36.1165 23.9482 36.1165 23.3722C36.1165 23.0522 36.1325 22.8122 36.1645 22.6522L37.2365 16.9562L40.4845 16.6362L39.3165 22.8122C39.2738 23.0469 39.2525 23.2335 39.2525 23.3722C39.2525 23.9909 39.4392 24.3002 39.8125 24.3002C40.2285 24.3002 40.5858 24.0175 40.8845 23.4522C40.9805 23.2709 41.0498 23.0629 41.0925 22.8282L42.2285 16.9562L45.3805 16.6362L44.1965 22.8762C44.1645 23.0362 44.1485 23.2015 44.1485 23.3722C44.1485 23.5429 44.1965 23.7242 44.2925 23.9162C44.3885 24.0975 44.5912 24.2095 44.9005 24.2522C44.8365 24.5082 44.6925 24.7215 44.4685 24.8922C43.9992 25.2549 43.5085 25.4362 42.9965 25.4362C42.4952 25.4362 42.0952 25.3455 41.7965 25.1642C41.4978 24.9829 41.3058 24.7429 41.2205 24.4442ZM46.0328 24.3482L48.0168 13.9162L51.2648 13.5962L50.7688 16.0442C50.6514 16.5455 50.5181 16.9722 50.3688 17.3242C50.6034 17.0255 50.9768 16.8175 51.4888 16.7002C51.6381 16.6575 51.8034 16.6362 51.9848 16.6362C52.9768 16.6362 53.7448 16.9402 54.2888 17.5482C54.8328 18.1455 55.1048 19.0255 55.1048 20.1882C55.1048 21.7029 54.6728 22.9349 53.8088 23.8842C52.8808 24.9189 51.5741 25.4362 49.8888 25.4362C48.7261 25.4362 47.7074 25.2442 46.8328 24.8602C46.5234 24.7215 46.2568 24.5509 46.0328 24.3482ZM49.2488 24.2042C49.4728 24.3962 49.7234 24.4922 50.0008 24.4922C50.2781 24.4922 50.4968 24.4389 50.6568 24.3322C50.8168 24.2255 50.9554 24.0655 51.0728 23.8522C51.3928 23.2762 51.6808 22.1082 51.9368 20.3482C52.0114 19.8469 52.0488 19.3455 52.0488 18.8442C52.0488 18.3429 51.9901 18.0122 51.8728 17.8522C51.7661 17.6922 51.6061 17.6122 51.3928 17.6122C50.7421 17.6122 50.3101 18.2469 50.0968 19.5162L49.2488 24.2042ZM61.2049 24.4442C60.6929 25.1055 59.8022 25.4362 58.5329 25.4362C57.8715 25.4362 57.3009 25.2389 56.8209 24.8442C56.3409 24.4389 56.1009 23.9482 56.1009 23.3722C56.1009 23.0522 56.1169 22.8122 56.1489 22.6522L57.2209 16.9562L60.4689 16.6362L59.3009 22.8122C59.2582 23.0469 59.2369 23.2335 59.2369 23.3722C59.2369 23.9909 59.4235 24.3002 59.7969 24.3002C60.2129 24.3002 60.5702 24.0175 60.8689 23.4522C60.9649 23.2709 61.0342 23.0629 61.0769 22.8282L62.2129 16.9562L65.3649 16.6362L64.1809 22.8762C64.1489 23.0362 64.1329 23.2015 64.1329 23.3722C64.1329 23.5429 64.1809 23.7242 64.2769 23.9162C64.3729 24.0975 64.5755 24.2095 64.8849 24.2522C64.8209 24.5082 64.6769 24.7215 64.4529 24.8922C63.9835 25.2549 63.4929 25.4362 62.9809 25.4362C62.4795 25.4362 62.0795 25.3455 61.7809 25.1642C61.4822 24.9829 61.2902 24.7429 61.2049 24.4442ZM72.9931 25.4362C71.7025 25.4362 71.0571 24.9349 71.0571 23.9322C71.0678 23.6549 71.1158 23.2815 71.2011 22.8122L71.4891 21.3402C71.7771 19.9535 71.9211 19.1055 71.9211 18.7962C71.9211 18.1775 71.7398 17.8682 71.3771 17.8682C70.7691 17.8682 70.3051 18.6629 69.9851 20.2522L69.0411 25.1162L65.8251 25.4362L67.4891 16.9402L70.1131 16.6362L69.8571 18.2042C70.3585 17.1589 71.3771 16.6362 72.9131 16.6362C73.6598 16.6362 74.1878 16.7962 74.4971 17.1162C74.8171 17.4255 74.9771 17.9322 74.9771 18.6362C74.9771 19.2975 74.8065 20.4015 74.4651 21.9482C74.3051 22.6415 74.2251 23.1215 74.2251 23.3882C74.2251 23.6442 74.2945 23.8469 74.4331 23.9962C74.5825 24.1455 74.7638 24.2309 74.9771 24.2522C74.8705 24.6149 74.6305 24.9029 74.2571 25.1162C73.8945 25.3295 73.4731 25.4362 72.9931 25.4362ZM77.3924 18.4282C77.755 17.9162 78.2084 17.4895 78.7524 17.1482C79.307 16.8069 79.9204 16.6362 80.5924 16.6362C81.2644 16.6362 81.7604 16.7429 82.0804 16.9562L85.2164 16.6362L84.1284 22.7802C83.755 24.8709 83.1737 26.3269 82.3844 27.1482C81.627 27.9269 80.5124 28.3162 79.0404 28.3162C77.9204 28.3162 77.0404 28.1402 76.4004 27.7882C75.7604 27.4362 75.4404 26.9669 75.4404 26.3802C75.4404 25.9429 75.6057 25.5962 75.9364 25.3402C76.267 25.0949 76.6884 24.9722 77.2004 24.9722C77.6484 24.9722 78.043 25.0735 78.3844 25.2762C78.587 25.3829 78.7364 25.5109 78.8324 25.6602C78.587 25.8735 78.4644 26.1562 78.4644 26.5082C78.4644 26.9669 78.6777 27.1962 79.1044 27.1962C79.819 27.1962 80.379 26.3535 80.7844 24.6682C80.9017 24.2095 81.0084 23.7509 81.1044 23.2922C80.6244 23.8789 79.8404 24.1722 78.7524 24.1722C77.995 24.1722 77.3977 23.9909 76.9604 23.6282C76.523 23.2655 76.3044 22.6575 76.3044 21.8042C76.3044 21.2709 76.395 20.7055 76.5764 20.1082C76.7577 19.5002 77.0297 18.9402 77.3924 18.4282ZM79.4724 21.8522C79.4724 22.5775 79.659 22.9402 80.0324 22.9402C80.2884 22.9402 80.539 22.8015 80.7844 22.5242C80.9764 22.3002 81.1097 22.0229 81.1844 21.6922L82.0004 17.5802C81.947 17.5695 81.8937 17.5535 81.8404 17.5322C81.7337 17.4895 81.611 17.4682 81.4724 17.4682C80.8217 17.4682 80.3044 18.0015 79.9204 19.0682C79.6217 19.9002 79.4724 20.8282 79.4724 21.8522ZM89.6745 24.2362C89.3438 25.0362 88.6505 25.4362 87.5945 25.4362C87.0505 25.4362 86.6078 25.2495 86.2665 24.8762C85.9785 24.5455 85.8345 24.2149 85.8345 23.8842C85.8345 23.0202 86.0318 21.7455 86.4265 20.0602L87.0185 16.9562L90.2665 16.6362L89.2905 21.6922C89.1092 22.4815 89.0185 23.0149 89.0185 23.2922C89.0185 23.9002 89.2372 24.2149 89.6745 24.2362ZM87.3065 14.7322C87.3065 14.3162 87.4772 13.9962 87.8185 13.7722C88.1705 13.5482 88.5972 13.4362 89.0985 13.4362C89.5998 13.4362 89.9998 13.5482 90.2985 13.7722C90.6078 13.9962 90.7625 14.3162 90.7625 14.7322C90.7625 15.1482 90.5918 15.4629 90.2505 15.6762C89.9198 15.8895 89.5038 15.9962 89.0025 15.9962C88.5012 15.9962 88.0905 15.8895 87.7705 15.6762C87.4612 15.4629 87.3065 15.1482 87.3065 14.7322ZM94.1905 25.1162L96.0145 15.3882L96.1905 14.5562H99.6145L97.5985 25.1162H94.1905ZM104.095 24.1722C103.807 25.0149 103.108 25.4362 101.999 25.4362C101.177 25.4362 100.484 24.9455 99.9185 23.9642C99.3425 22.9829 99.0012 21.6922 98.8945 20.0922C100.068 17.9482 101.06 16.4335 101.871 15.5482C102.649 14.7055 103.444 14.2842 104.255 14.2842C104.692 14.2842 105.065 14.4015 105.375 14.6362C105.695 14.8709 105.892 15.1749 105.967 15.5482C105.604 15.6975 105.337 15.8309 105.167 15.9482C104.74 16.2682 104.239 16.7855 103.663 17.5002L102.207 19.2442C101.972 19.5215 101.807 19.7242 101.711 19.8522C101.871 20.7482 102.191 21.6389 102.671 22.5242C103.129 23.3669 103.604 23.9162 104.095 24.1722ZM105.694 24.6362C105.449 24.3589 105.268 24.0015 105.15 23.5642C105.044 23.1269 104.99 22.5509 104.99 21.8362C104.99 21.1215 105.113 20.4389 105.358 19.7882C105.604 19.1375 105.95 18.5775 106.398 18.1082C107.316 17.1269 108.532 16.6362 110.046 16.6362C110.59 16.6362 111.06 16.7269 111.454 16.9082L114.19 16.6362L113.006 22.8762C112.974 23.0042 112.958 23.1855 112.958 23.4202C112.958 23.6549 113.028 23.8469 113.166 23.9962C113.316 24.1455 113.497 24.2309 113.71 24.2522C113.604 24.6149 113.353 24.9029 112.958 25.1162C112.574 25.3295 112.164 25.4362 111.726 25.4362C111.289 25.4362 110.921 25.3509 110.622 25.1802C110.334 25.0202 110.148 24.8015 110.062 24.5242C109.892 24.7909 109.625 25.0095 109.262 25.1802C108.9 25.3509 108.473 25.4362 107.982 25.4362C107.502 25.4362 107.065 25.3722 106.67 25.2442C106.276 25.1162 105.95 24.9135 105.694 24.6362ZM109.07 18.1402C108.953 18.3322 108.841 18.5935 108.734 18.9242C108.628 19.2442 108.484 19.8415 108.302 20.7162C108.132 21.5802 108.046 22.3215 108.046 22.9402C108.046 23.5589 108.094 23.9589 108.19 24.1402C108.286 24.3215 108.42 24.4122 108.59 24.4122C108.932 24.4122 109.225 24.2522 109.47 23.9322C109.726 23.6015 109.902 23.1482 109.998 22.5722L110.846 17.8842C110.622 17.6922 110.377 17.5962 110.11 17.5962C109.854 17.5962 109.646 17.6389 109.486 17.7242C109.337 17.8095 109.198 17.9482 109.07 18.1402ZM126.573 25.4362C125.283 25.4362 124.637 24.9349 124.637 23.9322C124.637 23.4949 124.728 22.8549 124.909 22.0122C125.101 21.1589 125.229 20.5615 125.293 20.2202C125.443 19.4415 125.517 18.9295 125.517 18.6842C125.517 18.1402 125.315 17.8682 124.909 17.8682C124.643 17.8682 124.381 18.0549 124.125 18.4282C123.869 18.7909 123.683 19.3402 123.565 20.0762L122.573 25.1162L119.453 25.4362L120.317 21.0842C120.413 20.6042 120.504 20.0922 120.589 19.5482C120.675 19.0042 120.717 18.6895 120.717 18.6042C120.717 18.1135 120.536 17.8682 120.173 17.8682C119.928 17.8682 119.672 18.0495 119.405 18.4122C119.139 18.7749 118.931 19.3295 118.781 20.0762L117.805 25.1162L114.653 25.4362L116.333 16.9562L118.941 16.6362L118.669 18.2522C118.947 17.6762 119.341 17.2655 119.853 17.0202C120.365 16.7642 121.021 16.6362 121.821 16.6362C122.28 16.6362 122.659 16.7482 122.957 16.9722C123.256 17.1962 123.453 17.4895 123.549 17.8522C123.731 17.4789 124.051 17.1855 124.509 16.9722C124.979 16.7482 125.496 16.6362 126.061 16.6362C126.637 16.6362 127.064 16.7002 127.341 16.8282C127.629 16.9455 127.859 17.1055 128.029 17.3082C128.317 17.6815 128.461 18.2095 128.461 18.8922C128.461 19.5642 128.317 20.5989 128.029 21.9962C127.88 22.6789 127.805 23.1482 127.805 23.4042C127.805 23.6495 127.875 23.8469 128.013 23.9962C128.163 24.1455 128.344 24.2309 128.557 24.2522C128.451 24.6149 128.211 24.9029 127.837 25.1162C127.475 25.3295 127.053 25.4362 126.573 25.4362ZM133.628 24.2362C133.297 25.0362 132.604 25.4362 131.548 25.4362C131.004 25.4362 130.561 25.2495 130.22 24.8762C129.932 24.5455 129.788 24.2149 129.788 23.8842C129.788 23.0202 129.985 21.7455 130.38 20.0602L130.972 16.9562L134.22 16.6362L133.244 21.6922C133.062 22.4815 132.972 23.0149 132.972 23.2922C132.972 23.9002 133.19 24.2149 133.628 24.2362ZM131.26 14.7322C131.26 14.3162 131.43 13.9962 131.772 13.7722C132.124 13.5482 132.55 13.4362 133.052 13.4362C133.553 13.4362 133.953 13.5482 134.252 13.7722C134.561 13.9962 134.716 14.3162 134.716 14.7322C134.716 15.1482 134.545 15.4629 134.204 15.6762C133.873 15.8895 133.457 15.9962 132.956 15.9962C132.454 15.9962 132.044 15.8895 131.724 15.6762C131.414 15.4629 131.26 15.1482 131.26 14.7322ZM144.096 17.2282C144.448 16.8335 144.928 16.6362 145.536 16.6362C145.909 16.6362 146.24 16.7375 146.528 16.9402C146.816 17.1429 146.96 17.4362 146.96 17.8202C146.96 18.1935 146.901 18.5829 146.784 18.9882C146.666 19.3935 146.517 19.8042 146.336 20.2202C145.973 21.0309 145.541 21.7722 145.04 22.4442C144.336 23.4149 143.642 24.1562 142.96 24.6682C142.288 25.1802 141.584 25.4362 140.848 25.4362C140.25 25.4362 139.77 25.3669 139.408 25.2282C139.344 22.9882 139.269 21.4682 139.184 20.6682C139.109 19.8682 139.04 19.2495 138.976 18.8122C138.869 17.9589 138.656 17.4309 138.336 17.2282C138.581 17.0149 138.821 16.8655 139.056 16.7802C139.301 16.6842 139.669 16.6362 140.16 16.6362C140.661 16.6362 141.088 16.8335 141.44 17.2282C141.792 17.6122 142 18.1509 142.064 18.8442C142.138 19.5269 142.176 20.2842 142.176 21.1162C142.176 21.9482 142.144 22.8655 142.08 23.8682C142.41 23.6335 142.752 23.1589 143.104 22.4442C143.584 21.4522 143.909 20.3589 144.08 19.1642C144.133 18.8015 144.16 18.4282 144.16 18.0442C144.16 17.6602 144.138 17.3882 144.096 17.2282ZM151.237 24.2362C150.906 25.0362 150.213 25.4362 149.157 25.4362C148.613 25.4362 148.17 25.2495 147.829 24.8762C147.541 24.5455 147.397 24.2149 147.397 23.8842C147.397 23.0202 147.594 21.7455 147.989 20.0602L148.581 16.9562L151.829 16.6362L150.853 21.6922C150.672 22.4815 150.581 23.0149 150.581 23.2922C150.581 23.9002 150.8 24.2149 151.237 24.2362ZM148.869 14.7322C148.869 14.3162 149.04 13.9962 149.381 13.7722C149.733 13.5482 150.16 13.4362 150.661 13.4362C151.162 13.4362 151.562 13.5482 151.861 13.7722C152.17 13.9962 152.325 14.3162 152.325 14.7322C152.325 15.1482 152.154 15.4629 151.813 15.6762C151.482 15.8895 151.066 15.9962 150.565 15.9962C150.064 15.9962 149.653 15.8895 149.333 15.6762C149.024 15.4629 148.869 15.1482 148.869 14.7322ZM153.288 24.6362C153.043 24.3589 152.861 24.0015 152.744 23.5642C152.637 23.1269 152.584 22.5509 152.584 21.8362C152.584 21.1215 152.707 20.4389 152.952 19.7882C153.197 19.1375 153.544 18.5775 153.992 18.1082C154.909 17.1269 156.125 16.6362 157.64 16.6362C158.184 16.6362 158.653 16.7269 159.048 16.9082L161.784 16.6362L160.6 22.8762C160.568 23.0042 160.552 23.1855 160.552 23.4202C160.552 23.6549 160.621 23.8469 160.76 23.9962C160.909 24.1455 161.091 24.2309 161.304 24.2522C161.197 24.6149 160.947 24.9029 160.552 25.1162C160.168 25.3295 159.757 25.4362 159.32 25.4362C158.883 25.4362 158.515 25.3509 158.216 25.1802C157.928 25.0202 157.741 24.8015 157.656 24.5242C157.485 24.7909 157.219 25.0095 156.856 25.1802C156.493 25.3509 156.067 25.4362 155.576 25.4362C155.096 25.4362 154.659 25.3722 154.264 25.2442C153.869 25.1162 153.544 24.9135 153.288 24.6362ZM156.664 18.1402C156.547 18.3322 156.435 18.5935 156.328 18.9242C156.221 19.2442 156.077 19.8415 155.896 20.7162C155.725 21.5802 155.64 22.3215 155.64 22.9402C155.64 23.5589 155.688 23.9589 155.784 24.1402C155.88 24.3215 156.013 24.4122 156.184 24.4122C156.525 24.4122 156.819 24.2522 157.064 23.9322C157.32 23.6015 157.496 23.1482 157.592 22.5722L158.44 17.8842C158.216 17.6922 157.971 17.5962 157.704 17.5962C157.448 17.5962 157.24 17.6389 157.08 17.7242C156.931 17.8095 156.792 17.9482 156.664 18.1402ZM174.296 21.8042C174.573 22.0069 174.712 22.3269 174.712 22.7642C174.712 23.1909 174.616 23.5589 174.424 23.8682C174.243 24.1669 173.971 24.4335 173.608 24.6682C172.829 25.1695 171.757 25.4202 170.392 25.4202C169.037 25.4202 167.987 25.0682 167.24 24.3642C166.504 23.6495 166.136 22.6629 166.136 21.4042C166.136 19.6229 166.6 18.0549 167.528 16.7002C168.232 15.6975 169.213 14.9829 170.472 14.5562C171.123 14.3429 171.768 14.2362 172.408 14.2362C173.048 14.2362 173.565 14.2789 173.96 14.3642C174.355 14.4495 174.701 14.5775 175 14.7482C175.651 15.1215 175.976 15.6069 175.976 16.2042C175.976 16.7482 175.72 17.2229 175.208 17.6282C174.739 17.9909 174.312 18.1722 173.928 18.1722C173.544 18.1722 173.272 18.1455 173.112 18.0922C173.155 17.7082 173.176 17.3935 173.176 17.1482C173.176 16.8922 173.171 16.6735 173.16 16.4922C173.149 16.3109 173.117 16.1349 173.064 15.9642C172.957 15.5695 172.739 15.3722 172.408 15.3722C172.088 15.3722 171.763 15.5269 171.432 15.8362C171.112 16.1349 170.813 16.5402 170.536 17.0522C169.907 18.2149 169.592 19.4842 169.592 20.8602C169.592 21.5215 169.779 22.0442 170.152 22.4282C170.525 22.8015 171.112 22.9882 171.912 22.9882C172.509 22.9882 173.091 22.7909 173.656 22.3962C173.901 22.2255 174.115 22.0282 174.296 21.8042ZM184.086 23.3402C184.086 23.8095 184.326 24.1135 184.806 24.2522C184.688 24.6469 184.4 24.9509 183.942 25.1642C183.558 25.3455 183.152 25.4362 182.726 25.4362C182.31 25.4362 181.99 25.3775 181.766 25.2602C181.552 25.1535 181.387 25.0095 181.27 24.8282C181.078 24.5509 180.982 24.1509 180.982 23.6282C180.982 23.3189 181.067 22.7375 181.238 21.8842L181.462 20.6682C181.643 19.7402 181.734 19.1055 181.734 18.7642C181.734 18.1669 181.568 17.8682 181.238 17.8682C180.822 17.8682 180.48 18.1722 180.214 18.7802C180.107 19.0149 180.016 19.3082 179.942 19.6602L178.854 25.1162L175.638 25.4362L177.894 13.9162L181.11 13.5962L180.982 14.2362C180.683 15.8789 180.406 16.9775 180.15 17.5322C180.747 16.9349 181.595 16.6362 182.694 16.6362C183.856 16.6362 184.544 17.0202 184.758 17.7882C184.832 18.0335 184.87 18.2629 184.87 18.4762C184.87 18.6895 184.859 18.8815 184.838 19.0522C184.827 19.2122 184.795 19.4415 184.742 19.7402L184.534 20.8922L184.166 22.7002C184.112 22.9455 184.086 23.1589 184.086 23.3402ZM186.788 24.6362C186.543 24.3589 186.361 24.0015 186.244 23.5642C186.137 23.1269 186.084 22.5509 186.084 21.8362C186.084 21.1215 186.207 20.4389 186.452 19.7882C186.697 19.1375 187.044 18.5775 187.492 18.1082C188.409 17.1269 189.625 16.6362 191.14 16.6362C191.684 16.6362 192.153 16.7269 192.548 16.9082L195.284 16.6362L194.1 22.8762C194.068 23.0042 194.052 23.1855 194.052 23.4202C194.052 23.6549 194.121 23.8469 194.26 23.9962C194.409 24.1455 194.591 24.2309 194.804 24.2522C194.697 24.6149 194.447 24.9029 194.052 25.1162C193.668 25.3295 193.257 25.4362 192.82 25.4362C192.383 25.4362 192.015 25.3509 191.716 25.1802C191.428 25.0202 191.241 24.8015 191.156 24.5242C190.985 24.7909 190.719 25.0095 190.356 25.1802C189.993 25.3509 189.567 25.4362 189.076 25.4362C188.596 25.4362 188.159 25.3722 187.764 25.2442C187.369 25.1162 187.044 24.9135 186.788 24.6362ZM190.164 18.1402C190.047 18.3322 189.935 18.5935 189.828 18.9242C189.721 19.2442 189.577 19.8415 189.396 20.7162C189.225 21.5802 189.14 22.3215 189.14 22.9402C189.14 23.5589 189.188 23.9589 189.284 24.1402C189.38 24.3215 189.513 24.4122 189.684 24.4122C190.025 24.4122 190.319 24.2522 190.564 23.9322C190.82 23.6015 190.996 23.1482 191.092 22.5722L191.94 17.8842C191.716 17.6922 191.471 17.5962 191.204 17.5962C190.948 17.5962 190.74 17.6389 190.58 17.7242C190.431 17.8095 190.292 17.9482 190.164 18.1402ZM196.403 23.5162C196.403 23.2282 196.478 22.7215 196.627 21.9962L197.475 17.6762H196.531L196.595 17.1962C197.875 16.8122 199.134 16.1509 200.371 15.2122H201.139L200.755 16.9562H202.003L201.859 17.6762H200.627L199.811 21.9962C199.672 22.6575 199.603 23.1002 199.603 23.3242C199.603 23.8362 199.827 24.1455 200.275 24.2522C200.168 24.6149 199.923 24.9029 199.539 25.1162C199.155 25.3295 198.691 25.4362 198.147 25.4362C197.603 25.4362 197.176 25.2655 196.867 24.9242C196.558 24.5829 196.403 24.1135 196.403 23.5162Z" fill="white"/>
</g>
<defs>
<filter id="filter0_i_5317_977" x="0.5" y="0.116211" width="230" height="43" filterUnits="userSpaceOnUse" color-interpolation-filters="sRGB">
<feFlood flood-opacity="0" result="BackgroundImageFix"/>
<feBlend mode="normal" in="SourceGraphic" in2="BackgroundImageFix" result="shape"/>
<feColorMatrix in="SourceAlpha" type="matrix" values="0 0 0 0 0 0 0 0 0 0 0 0 0 0 0 0 0 0 127 0" result="hardAlpha"/>
<feOffset dx="7" dy="4"/>
<feGaussianBlur stdDeviation="2"/>
<feComposite in2="hardAlpha" operator="arithmetic" k2="-1" k3="1"/>
<feColorMatrix type="matrix" values="0 0 0 0 0.42467 0 0 0 0 0.760329 0 0 0 0 0.968982 0 0 0 0.25 0"/>
<feBlend mode="normal" in2="shape" result="effect1_innerShadow_5317_977"/>
</filter>
</defs>
</svg>
