<svg width="119" height="40" viewBox="0 0 119 40" fill="none" xmlns="http://www.w3.org/2000/svg">
<g filter="url(#filter0_i_5317_971)">
<rect x="0.5" y="0.116211" width="118" height="39" rx="19.5" fill="#1A748E"/>
<path d="M32.052 16.6362C31.188 16.6362 30.4413 16.4922 29.812 16.2042L29.3 18.7962H32.388C32.388 19.3615 32.244 19.8255 31.956 20.1882C31.6787 20.5402 31.284 20.7162 30.772 20.7162C30.2173 20.7162 29.684 20.6149 29.172 20.4122C29.0653 20.3695 29.0067 20.3429 28.996 20.3322L28.084 25.1162H24.596L26.628 14.5562H33.764C33.764 15.2069 33.6093 15.7189 33.3 16.0922C33.0013 16.4549 32.5853 16.6362 32.052 16.6362ZM36.7444 25.4362C34.3977 25.4362 33.2244 24.3322 33.2244 22.1242C33.2244 20.5562 33.6564 19.2655 34.5204 18.2522C35.4377 17.1749 36.691 16.6362 38.2804 16.6362C39.4324 16.6362 40.3017 16.9029 40.8884 17.4362C41.475 17.9695 41.7684 18.7962 41.7684 19.9162C41.7684 21.6229 41.3097 22.9722 40.3924 23.9642C39.4964 24.9455 38.2804 25.4362 36.7444 25.4362ZM37.1604 18.4762C37.0324 18.7642 36.915 19.1269 36.8084 19.5642C36.7124 19.9909 36.6004 20.5455 36.4724 21.2282C36.3444 21.9109 36.2804 22.6735 36.2804 23.5162C36.2804 23.7935 36.323 24.0229 36.4084 24.2042C36.5044 24.3855 36.675 24.4762 36.9204 24.4762C37.1657 24.4762 37.363 24.4175 37.5124 24.3002C37.6724 24.1829 37.811 23.9855 37.9284 23.7082C38.1417 23.2175 38.3337 22.5189 38.5044 21.6122C38.675 20.6949 38.7657 20.0389 38.7764 19.6442C38.7977 19.2495 38.8084 18.9082 38.8084 18.6202C38.8084 18.3215 38.7657 18.0762 38.6804 17.8842C38.595 17.6922 38.4297 17.5962 38.1844 17.5962C37.9497 17.5962 37.7524 17.6709 37.5924 17.8202C37.4324 17.9695 37.2884 18.1882 37.1604 18.4762ZM47.7175 20.6202C48.1015 19.9375 48.2935 19.2495 48.2935 18.5562C48.2935 18.0975 48.1282 17.8682 47.7975 17.8682C47.5415 17.8682 47.2802 18.0869 47.0135 18.5242C46.7362 18.9615 46.5548 19.4629 46.4695 20.0282L45.6375 25.1162L42.3255 25.4362L43.9575 16.9562L46.5975 16.6362L46.3095 18.2522C46.8322 17.1749 47.6802 16.6362 48.8535 16.6362C49.4722 16.6362 49.9468 16.7962 50.2775 17.1162C50.6188 17.4362 50.7895 17.9269 50.7895 18.5882C50.7895 19.2389 50.5708 19.7722 50.1335 20.1882C49.7068 20.6042 49.1255 20.8122 48.3895 20.8122C48.0695 20.8122 47.8455 20.7482 47.7175 20.6202ZM62.5733 25.4362C61.2826 25.4362 60.6373 24.9349 60.6373 23.9322C60.6373 23.4949 60.7279 22.8549 60.9093 22.0122C61.1013 21.1589 61.2293 20.5615 61.2933 20.2202C61.4426 19.4415 61.5173 18.9295 61.5173 18.6842C61.5173 18.1402 61.3146 17.8682 60.9093 17.8682C60.6426 17.8682 60.3813 18.0549 60.1253 18.4282C59.8693 18.7909 59.6826 19.3402 59.5653 20.0762L58.5733 25.1162L55.4533 25.4362L56.3173 21.0842C56.4133 20.6042 56.5039 20.0922 56.5893 19.5482C56.6746 19.0042 56.7173 18.6895 56.7173 18.6042C56.7173 18.1135 56.5359 17.8682 56.1733 17.8682C55.9279 17.8682 55.6719 18.0495 55.4053 18.4122C55.1386 18.7749 54.9306 19.3295 54.7812 20.0762L53.8053 25.1162L50.6532 25.4362L52.3333 16.9562L54.9413 16.6362L54.6693 18.2522C54.9466 17.6762 55.3413 17.2655 55.8533 17.0202C56.3653 16.7642 57.0213 16.6362 57.8213 16.6362C58.2799 16.6362 58.6586 16.7482 58.9573 16.9722C59.2559 17.1962 59.4533 17.4895 59.5493 17.8522C59.7306 17.4789 60.0506 17.1855 60.5093 16.9722C60.9786 16.7482 61.4959 16.6362 62.0613 16.6362C62.6373 16.6362 63.0639 16.7002 63.3413 16.8282C63.6293 16.9455 63.8586 17.1055 64.0293 17.3082C64.3173 17.6815 64.4613 18.2095 64.4613 18.8922C64.4613 19.5642 64.3173 20.5989 64.0293 21.9962C63.8799 22.6789 63.8053 23.1482 63.8053 23.4042C63.8053 23.6495 63.8746 23.8469 64.0133 23.9962C64.1626 24.1455 64.3439 24.2309 64.5573 24.2522C64.4506 24.6149 64.2106 24.9029 63.8373 25.1162C63.4746 25.3295 63.0533 25.4362 62.5733 25.4362ZM70.9236 24.4442C70.4116 25.1055 69.521 25.4362 68.2516 25.4362C67.5903 25.4362 67.0196 25.2389 66.5396 24.8442C66.0596 24.4389 65.8196 23.9482 65.8196 23.3722C65.8196 23.0522 65.8356 22.8122 65.8676 22.6522L66.9396 16.9562L70.1876 16.6362L69.0196 22.8122C68.977 23.0469 68.9556 23.2335 68.9556 23.3722C68.9556 23.9909 69.1423 24.3002 69.5156 24.3002C69.9316 24.3002 70.289 24.0175 70.5876 23.4522C70.6836 23.2709 70.753 23.0629 70.7956 22.8282L71.9316 16.9562L75.0836 16.6362L73.8996 22.8762C73.8676 23.0362 73.8516 23.2015 73.8516 23.3722C73.8516 23.5429 73.8996 23.7242 73.9956 23.9162C74.0916 24.0975 74.2943 24.2095 74.6036 24.2522C74.5396 24.5082 74.3956 24.7215 74.1716 24.8922C73.7023 25.2549 73.2116 25.4362 72.6996 25.4362C72.1983 25.4362 71.7983 25.3455 71.4996 25.1642C71.201 24.9829 71.009 24.7429 70.9236 24.4442ZM79.7679 24.2362C79.4372 25.0362 78.7439 25.4362 77.6879 25.4362C77.1545 25.4362 76.7172 25.2495 76.3759 24.8762C76.0985 24.5669 75.9599 24.2362 75.9599 23.8842C75.9599 23.0842 76.1465 21.8095 76.5199 20.0602L77.6879 13.9162L80.9359 13.5962L79.3839 21.6922C79.2025 22.4815 79.1119 23.0149 79.1119 23.2922C79.1119 23.9002 79.3305 24.2149 79.7679 24.2362ZM84.9714 24.2362C84.6407 25.0362 83.9474 25.4362 82.8914 25.4362C82.3474 25.4362 81.9047 25.2495 81.5634 24.8762C81.2754 24.5455 81.1314 24.2149 81.1314 23.8842C81.1314 23.0202 81.3287 21.7455 81.7234 20.0602L82.3154 16.9562L85.5634 16.6362L84.5874 21.6922C84.406 22.4815 84.3154 23.0149 84.3154 23.2922C84.3154 23.9002 84.534 24.2149 84.9714 24.2362ZM82.6034 14.7322C82.6034 14.3162 82.774 13.9962 83.1154 13.7722C83.4674 13.5482 83.894 13.4362 84.3954 13.4362C84.8967 13.4362 85.2967 13.5482 85.5954 13.7722C85.9047 13.9962 86.0594 14.3162 86.0594 14.7322C86.0594 15.1482 85.8887 15.4629 85.5474 15.6762C85.2167 15.8895 84.8007 15.9962 84.2994 15.9962C83.798 15.9962 83.3874 15.8895 83.0674 15.6762C82.758 15.4629 82.6034 15.1482 82.6034 14.7322ZM91.3425 20.6202C91.7265 19.9375 91.9185 19.2495 91.9185 18.5562C91.9185 18.0975 91.7532 17.8682 91.4225 17.8682C91.1665 17.8682 90.9052 18.0869 90.6385 18.5242C90.3612 18.9615 90.1798 19.4629 90.0945 20.0282L89.2625 25.1162L85.9505 25.4362L87.5825 16.9562L90.2225 16.6362L89.9345 18.2522C90.4572 17.1749 91.3052 16.6362 92.4785 16.6362C93.0972 16.6362 93.5718 16.7962 93.9025 17.1162C94.2438 17.4362 94.4145 17.9269 94.4145 18.5882C94.4145 19.2389 94.1958 19.7722 93.7585 20.1882C93.3318 20.6042 92.7505 20.8122 92.0145 20.8122C91.6945 20.8122 91.4705 20.7482 91.3425 20.6202Z" fill="white"/>
</g>
<defs>
<filter id="filter0_i_5317_971" x="0.5" y="0.116211" width="122" height="43" filterUnits="userSpaceOnUse" color-interpolation-filters="sRGB">
<feFlood flood-opacity="0" result="BackgroundImageFix"/>
<feBlend mode="normal" in="SourceGraphic" in2="BackgroundImageFix" result="shape"/>
<feColorMatrix in="SourceAlpha" type="matrix" values="0 0 0 0 0 0 0 0 0 0 0 0 0 0 0 0 0 0 127 0" result="hardAlpha"/>
<feOffset dx="7" dy="4"/>
<feGaussianBlur stdDeviation="2"/>
<feComposite in2="hardAlpha" operator="arithmetic" k2="-1" k3="1"/>
<feColorMatrix type="matrix" values="0 0 0 0 0.42467 0 0 0 0 0.760329 0 0 0 0 0.968982 0 0 0 0.25 0"/>
<feBlend mode="normal" in2="shape" result="effect1_innerShadow_5317_971"/>
</filter>
</defs>
</svg>
