<svg width="239" height="40" viewBox="0 0 239 40" fill="none" xmlns="http://www.w3.org/2000/svg">
<g filter="url(#filter0_i_5317_919)">
<rect x="0.5" y="0.67334" width="238" height="38" rx="19" stroke="white"/>
<path d="M34.656 18.5333C34.656 23.0773 32.192 25.3493 27.264 25.3493C26.4747 25.3493 25.4293 25.2533 24.128 25.0613L25.92 15.6053C26.0053 15.1787 26.0747 14.8427 26.128 14.5973C27.7493 14.48 28.9173 14.4213 29.632 14.4213C30.3573 14.4213 31.0507 14.496 31.712 14.6453C32.3733 14.7947 32.9227 15.0347 33.36 15.3653C34.224 16.016 34.656 17.072 34.656 18.5333ZM31.36 17.9413C31.36 16.352 30.7893 15.5573 29.648 15.5573H29.488C29.4347 15.5573 29.3813 15.5627 29.328 15.5733L27.68 24.1653C27.7227 24.1867 27.7653 24.1973 27.808 24.1973H27.936C28.3307 24.1973 28.7307 24.0747 29.136 23.8293C29.552 23.584 29.92 23.2107 30.24 22.7093C30.9867 21.5467 31.36 19.9573 31.36 17.9413ZM38.9631 25.4933C36.6165 25.4933 35.4431 24.3893 35.4431 22.1813C35.4431 20.6133 35.8751 19.3227 36.7391 18.3093C37.6565 17.232 38.9098 16.6933 40.4991 16.6933C41.6511 16.6933 42.5205 16.96 43.1071 17.4933C43.6938 18.0267 43.9871 18.8533 43.9871 19.9733C43.9871 21.68 43.5285 23.0293 42.6111 24.0213C41.7151 25.0027 40.4991 25.4933 38.9631 25.4933ZM39.3791 18.5333C39.2511 18.8213 39.1338 19.184 39.0271 19.6213C38.9311 20.048 38.8191 20.6027 38.6911 21.2853C38.5631 21.968 38.4991 22.7307 38.4991 23.5733C38.4991 23.8507 38.5418 24.08 38.6271 24.2613C38.7231 24.4427 38.8938 24.5333 39.1391 24.5333C39.3845 24.5333 39.5818 24.4747 39.7311 24.3573C39.8911 24.24 40.0298 24.0427 40.1471 23.7653C40.3605 23.2747 40.5525 22.576 40.7231 21.6693C40.8938 20.752 40.9845 20.096 40.9951 19.7013C41.0165 19.3067 41.0271 18.9653 41.0271 18.6773C41.0271 18.3787 40.9845 18.1333 40.8991 17.9413C40.8138 17.7493 40.6485 17.6533 40.4031 17.6533C40.1685 17.6533 39.9711 17.728 39.8111 17.8773C39.6511 18.0267 39.5071 18.2453 39.3791 18.5333ZM56.7549 22.5013C56.0509 23.472 55.3575 24.2133 54.6749 24.7253C54.0029 25.2373 53.3149 25.4933 52.6109 25.4933C51.9175 25.4933 51.4482 25.424 51.2029 25.2853V21.7653C50.5949 23.3867 49.7469 24.512 48.6589 25.1413C48.2642 25.376 47.8802 25.4933 47.5069 25.4933C46.7922 25.4933 46.2802 25.424 45.9709 25.2853C45.8962 22.8427 45.8269 21.2853 45.7629 20.6133C45.6989 19.9307 45.6402 19.3813 45.5869 18.9653C45.4802 18.1333 45.2455 17.5467 44.8829 17.2053C45.3415 16.864 45.8909 16.6933 46.5309 16.6933C47.7682 16.6933 48.4722 17.4613 48.6429 18.9973C48.6855 19.36 48.7069 19.7333 48.7069 20.1173C48.7069 20.6933 48.6429 21.984 48.5149 23.9893C48.7709 23.872 49.0322 23.6053 49.2989 23.1893C49.5762 22.7627 49.8269 22.2613 50.0509 21.6853C50.5522 20.352 50.8029 19.1093 50.8029 17.9573C50.8029 17.776 50.7762 17.5893 50.7229 17.3973C50.6802 17.2053 50.6322 17.0827 50.5789 17.0293C50.9522 16.8053 51.4215 16.6933 51.9869 16.6933C52.5629 16.6933 52.9842 16.8907 53.2509 17.2853C53.5282 17.6693 53.7042 18.2187 53.7789 18.9333C53.8642 19.84 53.9069 20.5653 53.9069 21.1093C53.9069 21.8667 53.8695 22.8053 53.7949 23.9253C54.3282 23.5413 54.8135 22.72 55.2509 21.4613C55.6882 20.2027 55.9069 19.1253 55.9069 18.2293C55.9069 17.8347 55.8749 17.52 55.8109 17.2853C56.1629 16.8907 56.6429 16.6933 57.2509 16.6933C57.6242 16.6933 57.9442 16.7947 58.2109 16.9973C58.4882 17.2 58.6269 17.4933 58.6269 17.8773C58.6269 18.2507 58.5682 18.64 58.4509 19.0453C58.3442 19.4507 58.2002 19.8613 58.0189 20.2773C57.6669 21.1093 57.2455 21.8507 56.7549 22.5013ZM65.8213 25.4933C64.5306 25.4933 63.8853 24.992 63.8853 23.9893C63.8959 23.712 63.9439 23.3387 64.0293 22.8693L64.3173 21.3973C64.6053 20.0107 64.7493 19.1627 64.7493 18.8533C64.7493 18.2347 64.5679 17.9253 64.2053 17.9253C63.5973 17.9253 63.1333 18.72 62.8133 20.3093L61.8693 25.1733L58.6532 25.4933L60.3173 16.9973L62.9413 16.6933L62.6853 18.2613C63.1866 17.216 64.2053 16.6933 65.7413 16.6933C66.4879 16.6933 67.0159 16.8533 67.3253 17.1733C67.6453 17.4827 67.8053 17.9893 67.8053 18.6933C67.8053 19.3547 67.6346 20.4587 67.2933 22.0053C67.1333 22.6987 67.0533 23.1787 67.0533 23.4453C67.0533 23.7013 67.1226 23.904 67.2613 24.0533C67.4106 24.2027 67.5919 24.288 67.8053 24.3093C67.6986 24.672 67.4586 24.96 67.0853 25.1733C66.7226 25.3867 66.3013 25.4933 65.8213 25.4933ZM72.9085 24.2933C72.5778 25.0933 71.8845 25.4933 70.8285 25.4933C70.2952 25.4933 69.8578 25.3067 69.5165 24.9333C69.2392 24.624 69.1005 24.2933 69.1005 23.9413C69.1005 23.1413 69.2872 21.8667 69.6605 20.1173L70.8285 13.9733L74.0765 13.6533L72.5245 21.7493C72.3432 22.5387 72.2525 23.072 72.2525 23.3493C72.2525 23.9573 72.4712 24.272 72.9085 24.2933ZM77.76 25.4933C75.4133 25.4933 74.24 24.3893 74.24 22.1813C74.24 20.6133 74.672 19.3227 75.536 18.3093C76.4533 17.232 77.7067 16.6933 79.296 16.6933C80.448 16.6933 81.3173 16.96 81.904 17.4933C82.4907 18.0267 82.784 18.8533 82.784 19.9733C82.784 21.68 82.3253 23.0293 81.408 24.0213C80.512 25.0027 79.296 25.4933 77.76 25.4933ZM78.176 18.5333C78.048 18.8213 77.9307 19.184 77.824 19.6213C77.728 20.048 77.616 20.6027 77.488 21.2853C77.36 21.968 77.296 22.7307 77.296 23.5733C77.296 23.8507 77.3387 24.08 77.424 24.2613C77.52 24.4427 77.6907 24.5333 77.936 24.5333C78.1813 24.5333 78.3787 24.4747 78.528 24.3573C78.688 24.24 78.8267 24.0427 78.944 23.7653C79.1573 23.2747 79.3493 22.576 79.52 21.6693C79.6907 20.752 79.7813 20.096 79.792 19.7013C79.8133 19.3067 79.824 18.9653 79.824 18.6773C79.824 18.3787 79.7813 18.1333 79.696 17.9413C79.6107 17.7493 79.4453 17.6533 79.2 17.6533C78.9653 17.6533 78.768 17.728 78.608 17.8773C78.448 18.0267 78.304 18.2453 78.176 18.5333ZM84.4131 24.6933C84.1678 24.416 83.9865 24.0587 83.8691 23.6213C83.7625 23.184 83.7091 22.608 83.7091 21.8933C83.7091 21.1787 83.8318 20.496 84.0771 19.8453C84.3225 19.1947 84.6691 18.6347 85.1171 18.1653C86.0345 17.184 87.2505 16.6933 88.7651 16.6933C89.3091 16.6933 89.7785 16.784 90.1731 16.9653L92.9091 16.6933L91.7251 22.9333C91.6931 23.0613 91.6771 23.2427 91.6771 23.4773C91.6771 23.712 91.7465 23.904 91.8851 24.0533C92.0345 24.2027 92.2158 24.288 92.4291 24.3093C92.3225 24.672 92.0718 24.96 91.6771 25.1733C91.2931 25.3867 90.8825 25.4933 90.4451 25.4933C90.0078 25.4933 89.6398 25.408 89.3411 25.2373C89.0531 25.0773 88.8665 24.8587 88.7811 24.5813C88.6105 24.848 88.3438 25.0667 87.9811 25.2373C87.6185 25.408 87.1918 25.4933 86.7011 25.4933C86.2211 25.4933 85.7838 25.4293 85.3891 25.3013C84.9945 25.1733 84.6691 24.9707 84.4131 24.6933ZM87.7891 18.1973C87.6718 18.3893 87.5598 18.6507 87.4531 18.9813C87.3465 19.3013 87.2025 19.8987 87.0211 20.7733C86.8505 21.6373 86.7651 22.3787 86.7651 22.9973C86.7651 23.616 86.8131 24.016 86.9091 24.1973C87.0051 24.3787 87.1385 24.4693 87.3091 24.4693C87.6505 24.4693 87.9438 24.3093 88.1891 23.9893C88.4451 23.6587 88.6211 23.2053 88.7171 22.6293L89.5651 17.9413C89.3411 17.7493 89.0958 17.6533 88.8291 17.6533C88.5731 17.6533 88.3651 17.696 88.2051 17.7813C88.0558 17.8667 87.9171 18.0053 87.7891 18.1973ZM98.7495 16.6933C99.1335 16.6933 99.4748 16.736 99.7735 16.8213C99.7842 16.7787 99.8002 16.6987 99.8215 16.5813L99.9015 16.0853C99.9442 15.872 99.9975 15.5893 100.062 15.2373L100.318 13.9733L103.502 13.6533L101.726 22.9333C101.715 22.9973 101.71 23.0827 101.71 23.1893V23.4453C101.71 23.68 101.768 23.888 101.885 24.0693C102.003 24.24 102.158 24.3253 102.35 24.3253C102.136 24.8267 101.704 25.184 101.054 25.3973C100.83 25.4613 100.558 25.4933 100.238 25.4933C99.9282 25.4933 99.6295 25.408 99.3415 25.2373C99.0535 25.0773 98.8668 24.8587 98.7815 24.5813C98.6108 24.8587 98.3548 25.0773 98.0135 25.2373C97.6722 25.408 97.2508 25.4933 96.7495 25.4933C96.2588 25.4933 95.8055 25.4293 95.3895 25.3013C94.9842 25.1733 94.6535 24.9707 94.3975 24.6933C93.9282 24.1493 93.6935 23.2587 93.6935 22.0213C93.6935 20.4213 94.1628 19.136 95.1015 18.1653C96.0402 17.184 97.2562 16.6933 98.7495 16.6933ZM98.6375 17.6533C98.2428 17.6533 97.9388 17.8667 97.7255 18.2933C97.5122 18.72 97.2935 19.4613 97.0695 20.5173C96.8562 21.5733 96.7495 22.576 96.7495 23.5253C96.7495 24.176 96.9415 24.5013 97.3255 24.5013C97.6668 24.5013 97.9548 24.3307 98.1895 23.9893C98.4348 23.648 98.6055 23.1947 98.7015 22.6293L99.5655 17.9413C99.3415 17.7493 99.0322 17.6533 98.6375 17.6533ZM106.894 25.1733L108.814 14.6133H112.254L114.75 21.8773L116.078 14.6133L117.854 14.6293L115.902 25.1733H112.238L109.934 18.1813L108.654 25.1733H106.894ZM124.736 22.4693C125.003 22.6507 125.136 22.944 125.136 23.3493C125.136 23.744 125.035 24.0693 124.832 24.3253C124.63 24.5813 124.363 24.7947 124.032 24.9653C123.35 25.3173 122.64 25.4933 121.904 25.4933C121.168 25.4933 120.582 25.4133 120.144 25.2533C119.718 25.0933 119.36 24.864 119.072 24.5653C118.507 24 118.224 23.2 118.224 22.1653C118.224 20.5547 118.662 19.2587 119.536 18.2773C120.475 17.2213 121.76 16.6933 123.392 16.6933C124.406 16.6933 125.163 16.9067 125.664 17.3333C126.038 17.6533 126.224 18.0747 126.224 18.5973C126.224 20.4747 124.603 21.4133 121.36 21.4133C121.318 21.6907 121.296 21.9467 121.296 22.1813C121.296 22.672 121.403 23.0133 121.616 23.2053C121.84 23.3867 122.155 23.4773 122.56 23.4773C122.966 23.4773 123.382 23.3867 123.808 23.2053C124.246 23.0133 124.555 22.768 124.736 22.4693ZM121.472 20.7253C122.23 20.7253 122.827 20.4907 123.264 20.0213C123.702 19.5733 123.92 18.992 123.92 18.2773C123.92 18.032 123.872 17.8453 123.776 17.7173C123.691 17.5787 123.558 17.5093 123.376 17.5093C123.195 17.5093 123.024 17.5467 122.864 17.6213C122.715 17.6853 122.56 17.8347 122.4 18.0693C122.006 18.6027 121.696 19.488 121.472 20.7253ZM130.26 25.4933C127.913 25.4933 126.74 24.3893 126.74 22.1813C126.74 20.6133 127.172 19.3227 128.036 18.3093C128.953 17.232 130.207 16.6933 131.796 16.6933C132.948 16.6933 133.817 16.96 134.404 17.4933C134.991 18.0267 135.284 18.8533 135.284 19.9733C135.284 21.68 134.825 23.0293 133.908 24.0213C133.012 25.0027 131.796 25.4933 130.26 25.4933ZM130.676 18.5333C130.548 18.8213 130.431 19.184 130.324 19.6213C130.228 20.048 130.116 20.6027 129.988 21.2853C129.86 21.968 129.796 22.7307 129.796 23.5733C129.796 23.8507 129.839 24.08 129.924 24.2613C130.02 24.4427 130.191 24.5333 130.436 24.5333C130.681 24.5333 130.879 24.4747 131.028 24.3573C131.188 24.24 131.327 24.0427 131.444 23.7653C131.657 23.2747 131.849 22.576 132.02 21.6693C132.191 20.752 132.281 20.096 132.292 19.7013C132.313 19.3067 132.324 18.9653 132.324 18.6773C132.324 18.3787 132.281 18.1333 132.196 17.9413C132.111 17.7493 131.945 17.6533 131.7 17.6533C131.465 17.6533 131.268 17.728 131.108 17.8773C130.948 18.0267 130.804 18.2453 130.676 18.5333ZM143.681 24.0853C143.233 24.5333 142.7 24.88 142.081 25.1253C141.473 25.3707 140.865 25.4933 140.257 25.4933C139.649 25.4933 139.238 25.44 139.025 25.3333L138.529 28.0533L135.281 28.3733L137.489 17.0133L140.097 16.7413L139.889 17.8453C140.337 17.088 141.025 16.7093 141.953 16.7093C142.998 16.7093 143.798 17.0453 144.353 17.7173C144.844 18.3253 145.089 19.0933 145.089 20.0213C145.089 20.9493 144.966 21.744 144.721 22.4053C144.476 23.0667 144.129 23.6267 143.681 24.0853ZM139.217 24.2773C139.441 24.4693 139.692 24.5653 139.969 24.5653C140.246 24.5653 140.465 24.512 140.625 24.4053C140.785 24.2987 140.924 24.1387 141.041 23.9253C141.361 23.3493 141.649 22.1867 141.905 20.4373C141.98 19.9253 142.017 19.4187 142.017 18.9173C142.017 18.416 141.958 18.0853 141.841 17.9253C141.734 17.7653 141.574 17.6853 141.361 17.6853C140.71 17.6853 140.278 18.32 140.065 19.5893L139.217 24.2773ZM146.741 24.6933C146.496 24.416 146.315 24.0587 146.197 23.6213C146.091 23.184 146.037 22.608 146.037 21.8933C146.037 21.1787 146.16 20.496 146.405 19.8453C146.651 19.1947 146.997 18.6347 147.445 18.1653C148.363 17.184 149.579 16.6933 151.093 16.6933C151.637 16.6933 152.107 16.784 152.501 16.9653L155.237 16.6933L154.053 22.9333C154.021 23.0613 154.005 23.2427 154.005 23.4773C154.005 23.712 154.075 23.904 154.213 24.0533C154.363 24.2027 154.544 24.288 154.757 24.3093C154.651 24.672 154.4 24.96 154.005 25.1733C153.621 25.3867 153.211 25.4933 152.773 25.4933C152.336 25.4933 151.968 25.408 151.669 25.2373C151.381 25.0773 151.195 24.8587 151.109 24.5813C150.939 24.848 150.672 25.0667 150.309 25.2373C149.947 25.408 149.52 25.4933 149.029 25.4933C148.549 25.4933 148.112 25.4293 147.717 25.3013C147.323 25.1733 146.997 24.9707 146.741 24.6933ZM150.117 18.1973C150 18.3893 149.888 18.6507 149.781 18.9813C149.675 19.3013 149.531 19.8987 149.349 20.7733C149.179 21.6373 149.093 22.3787 149.093 22.9973C149.093 23.616 149.141 24.016 149.237 24.1973C149.333 24.3787 149.467 24.4693 149.637 24.4693C149.979 24.4693 150.272 24.3093 150.517 23.9893C150.773 23.6587 150.949 23.2053 151.045 22.6293L151.893 17.9413C151.669 17.7493 151.424 17.6533 151.157 17.6533C150.901 17.6533 150.693 17.696 150.533 17.7813C150.384 17.8667 150.245 18.0053 150.117 18.1973ZM161.108 20.6773C161.492 19.9947 161.684 19.3067 161.684 18.6133C161.684 18.1547 161.519 17.9253 161.188 17.9253C160.932 17.9253 160.671 18.144 160.404 18.5813C160.127 19.0187 159.945 19.52 159.86 20.0853L159.028 25.1733L155.716 25.4933L157.348 17.0133L159.988 16.6933L159.7 18.3093C160.223 17.232 161.071 16.6933 162.244 16.6933C162.863 16.6933 163.337 16.8533 163.668 17.1733C164.009 17.4933 164.18 17.984 164.18 18.6453C164.18 19.296 163.961 19.8293 163.524 20.2453C163.097 20.6613 162.516 20.8693 161.78 20.8693C161.46 20.8693 161.236 20.8053 161.108 20.6773ZM164.7 23.5733C164.7 23.2853 164.775 22.7787 164.924 22.0533L165.772 17.7333H164.828L164.892 17.2533C166.172 16.8693 167.431 16.208 168.668 15.2693H169.436L169.052 17.0133H170.3L170.156 17.7333H168.924L168.108 22.0533C167.969 22.7147 167.9 23.1573 167.9 23.3813C167.9 23.8933 168.124 24.2027 168.572 24.3093C168.465 24.672 168.22 24.96 167.836 25.1733C167.452 25.3867 166.988 25.4933 166.444 25.4933C165.9 25.4933 165.473 25.3227 165.164 24.9813C164.855 24.64 164.7 24.1707 164.7 23.5733ZM175.313 23.3653C174.758 23.9413 173.974 24.2293 172.961 24.2293C171.692 24.2293 170.924 23.7653 170.657 22.8373C170.572 22.56 170.529 22.2667 170.529 21.9573C170.529 21.648 170.561 21.3333 170.625 21.0133L171.377 17.0133L174.625 16.6933L173.745 21.3493C173.724 21.488 173.697 21.632 173.665 21.7813C173.633 21.9307 173.617 22.0853 173.617 22.2453C173.617 22.3947 173.644 22.5227 173.697 22.6293C173.75 22.7253 173.814 22.8053 173.889 22.8693C174.017 22.9547 174.193 22.9973 174.417 22.9973C174.652 22.9973 174.865 22.8587 175.057 22.5813C175.26 22.304 175.409 21.9253 175.505 21.4453L176.385 17.0133L179.537 16.6933L178.337 22.9813C177.942 25.0293 177.34 26.4587 176.529 27.2693C176.113 27.6853 175.633 27.9733 175.089 28.1333C174.556 28.304 173.942 28.3893 173.249 28.3893C172.129 28.3893 171.249 28.2133 170.609 27.8613C169.969 27.5093 169.649 27.04 169.649 26.4533C169.649 26.016 169.814 25.6693 170.145 25.4133C170.476 25.168 170.897 25.0453 171.409 25.0453C171.857 25.0453 172.252 25.1413 172.593 25.3333C172.796 25.4507 172.945 25.584 173.041 25.7333C172.796 25.9467 172.673 26.2293 172.673 26.5813C172.673 27.0507 172.886 27.2853 173.313 27.2853C174.017 27.2853 174.572 26.4747 174.977 24.8533C175.094 24.3733 175.206 23.8773 175.313 23.3653ZM190.437 25.4933C189.071 25.4933 188.325 24.5227 188.197 22.5813H185.445C185.231 23.072 185.05 23.5307 184.901 23.9573L184.485 25.1733H182.245L187.285 14.6133H190.725L191.397 22.3893C191.503 23.5093 191.77 24.2347 192.197 24.5653C191.887 25.184 191.301 25.4933 190.437 25.4933ZM185.941 21.4133H188.149L187.957 17.3013V16.8693L186.821 19.3813L185.941 21.4133ZM199.387 14.5013C202.001 14.5013 203.307 15.424 203.307 17.2693C203.307 18.2827 202.982 19.0933 202.331 19.7013C201.691 20.3093 200.811 20.6133 199.691 20.6133C199.169 20.6133 198.705 20.464 198.299 20.1653C198.107 20.0373 197.947 19.888 197.819 19.7173C198.598 19.7173 199.19 19.4827 199.595 19.0133C200.011 18.5333 200.219 17.8293 200.219 16.9013C200.219 15.9733 199.761 15.5093 198.843 15.5093H198.459C198.395 15.5093 198.337 15.5147 198.283 15.5253L196.443 25.1733H192.971L194.939 14.6933C196.081 14.5867 196.982 14.528 197.643 14.5173C198.305 14.5067 198.886 14.5013 199.387 14.5013ZM203.237 25.1733L205.061 15.4453L205.237 14.6133H208.661L206.645 25.1733H203.237ZM213.141 24.2293C212.853 25.072 212.155 25.4933 211.045 25.4933C210.224 25.4933 209.531 25.0027 208.965 24.0213C208.389 23.04 208.048 21.7493 207.941 20.1493C209.115 18.0053 210.107 16.4907 210.917 15.6053C211.696 14.7627 212.491 14.3413 213.301 14.3413C213.739 14.3413 214.112 14.4587 214.421 14.6933C214.741 14.928 214.939 15.232 215.013 15.6053C214.651 15.7547 214.384 15.888 214.213 16.0053C213.787 16.3253 213.285 16.8427 212.709 17.5573L211.253 19.3013C211.019 19.5787 210.853 19.7813 210.757 19.9093C210.917 20.8053 211.237 21.696 211.717 22.5813C212.176 23.424 212.651 23.9733 213.141 24.2293Z" fill="white"/>
</g>
<defs>
<filter id="filter0_i_5317_919" x="0" y="0.17334" width="243" height="43" filterUnits="userSpaceOnUse" color-interpolation-filters="sRGB">
<feFlood flood-opacity="0" result="BackgroundImageFix"/>
<feBlend mode="normal" in="SourceGraphic" in2="BackgroundImageFix" result="shape"/>
<feColorMatrix in="SourceAlpha" type="matrix" values="0 0 0 0 0 0 0 0 0 0 0 0 0 0 0 0 0 0 127 0" result="hardAlpha"/>
<feOffset dx="7" dy="4"/>
<feGaussianBlur stdDeviation="2"/>
<feComposite in2="hardAlpha" operator="arithmetic" k2="-1" k3="1"/>
<feColorMatrix type="matrix" values="0 0 0 0 0.42467 0 0 0 0 0.760329 0 0 0 0 0.968982 0 0 0 0.25 0"/>
<feBlend mode="normal" in2="shape" result="effect1_innerShadow_5317_919"/>
</filter>
</defs>
</svg>
