<svg width="207" height="40" viewBox="0 0 207 40" fill="none" xmlns="http://www.w3.org/2000/svg">
<g filter="url(#filter0_i_5317_917)">
<rect y="0.17334" width="207" height="39" rx="19.5" fill="#1A748E"/>
<path d="M34.656 18.5333C34.656 23.0773 32.192 25.3493 27.264 25.3493C26.4747 25.3493 25.4293 25.2533 24.128 25.0613L25.92 15.6053C26.0053 15.1787 26.0747 14.8427 26.128 14.5973C27.7493 14.48 28.9173 14.4213 29.632 14.4213C30.3573 14.4213 31.0507 14.496 31.712 14.6453C32.3733 14.7947 32.9227 15.0347 33.36 15.3653C34.224 16.016 34.656 17.072 34.656 18.5333ZM31.36 17.9413C31.36 16.352 30.7893 15.5573 29.648 15.5573H29.488C29.4347 15.5573 29.3813 15.5627 29.328 15.5733L27.68 24.1653C27.7227 24.1867 27.7653 24.1973 27.808 24.1973H27.936C28.3307 24.1973 28.7307 24.0747 29.136 23.8293C29.552 23.584 29.92 23.2107 30.24 22.7093C30.9867 21.5467 31.36 19.9573 31.36 17.9413ZM38.9631 25.4933C36.6165 25.4933 35.4431 24.3893 35.4431 22.1813C35.4431 20.6133 35.8751 19.3227 36.7391 18.3093C37.6565 17.232 38.9098 16.6933 40.4991 16.6933C41.6511 16.6933 42.5205 16.96 43.1071 17.4933C43.6938 18.0267 43.9871 18.8533 43.9871 19.9733C43.9871 21.68 43.5285 23.0293 42.6111 24.0213C41.7151 25.0027 40.4991 25.4933 38.9631 25.4933ZM39.3791 18.5333C39.2511 18.8213 39.1338 19.184 39.0271 19.6213C38.9311 20.048 38.8191 20.6027 38.6911 21.2853C38.5631 21.968 38.4991 22.7307 38.4991 23.5733C38.4991 23.8507 38.5418 24.08 38.6271 24.2613C38.7231 24.4427 38.8938 24.5333 39.1391 24.5333C39.3845 24.5333 39.5818 24.4747 39.7311 24.3573C39.8911 24.24 40.0298 24.0427 40.1471 23.7653C40.3605 23.2747 40.5525 22.576 40.7231 21.6693C40.8938 20.752 40.9845 20.096 40.9951 19.7013C41.0165 19.3067 41.0271 18.9653 41.0271 18.6773C41.0271 18.3787 40.9845 18.1333 40.8991 17.9413C40.8138 17.7493 40.6485 17.6533 40.4031 17.6533C40.1685 17.6533 39.9711 17.728 39.8111 17.8773C39.6511 18.0267 39.5071 18.2453 39.3791 18.5333ZM56.7549 22.5013C56.0509 23.472 55.3575 24.2133 54.6749 24.7253C54.0029 25.2373 53.3149 25.4933 52.6109 25.4933C51.9175 25.4933 51.4482 25.424 51.2029 25.2853V21.7653C50.5949 23.3867 49.7469 24.512 48.6589 25.1413C48.2642 25.376 47.8802 25.4933 47.5069 25.4933C46.7922 25.4933 46.2802 25.424 45.9709 25.2853C45.8962 22.8427 45.8269 21.2853 45.7629 20.6133C45.6989 19.9307 45.6402 19.3813 45.5869 18.9653C45.4802 18.1333 45.2455 17.5467 44.8829 17.2053C45.3415 16.864 45.8909 16.6933 46.5309 16.6933C47.7682 16.6933 48.4722 17.4613 48.6429 18.9973C48.6855 19.36 48.7069 19.7333 48.7069 20.1173C48.7069 20.6933 48.6429 21.984 48.5149 23.9893C48.7709 23.872 49.0322 23.6053 49.2989 23.1893C49.5762 22.7627 49.8269 22.2613 50.0509 21.6853C50.5522 20.352 50.8029 19.1093 50.8029 17.9573C50.8029 17.776 50.7762 17.5893 50.7229 17.3973C50.6802 17.2053 50.6322 17.0827 50.5789 17.0293C50.9522 16.8053 51.4215 16.6933 51.9869 16.6933C52.5629 16.6933 52.9842 16.8907 53.2509 17.2853C53.5282 17.6693 53.7042 18.2187 53.7789 18.9333C53.8642 19.84 53.9069 20.5653 53.9069 21.1093C53.9069 21.8667 53.8695 22.8053 53.7949 23.9253C54.3282 23.5413 54.8135 22.72 55.2509 21.4613C55.6882 20.2027 55.9069 19.1253 55.9069 18.2293C55.9069 17.8347 55.8749 17.52 55.8109 17.2853C56.1629 16.8907 56.6429 16.6933 57.2509 16.6933C57.6242 16.6933 57.9442 16.7947 58.2109 16.9973C58.4882 17.2 58.6269 17.4933 58.6269 17.8773C58.6269 18.2507 58.5682 18.64 58.4509 19.0453C58.3442 19.4507 58.2002 19.8613 58.0189 20.2773C57.6669 21.1093 57.2455 21.8507 56.7549 22.5013ZM65.8213 25.4933C64.5306 25.4933 63.8853 24.992 63.8853 23.9893C63.8959 23.712 63.9439 23.3387 64.0293 22.8693L64.3173 21.3973C64.6053 20.0107 64.7493 19.1627 64.7493 18.8533C64.7493 18.2347 64.5679 17.9253 64.2053 17.9253C63.5973 17.9253 63.1333 18.72 62.8133 20.3093L61.8693 25.1733L58.6532 25.4933L60.3173 16.9973L62.9413 16.6933L62.6853 18.2613C63.1866 17.216 64.2053 16.6933 65.7413 16.6933C66.4879 16.6933 67.0159 16.8533 67.3253 17.1733C67.6453 17.4827 67.8053 17.9893 67.8053 18.6933C67.8053 19.3547 67.6346 20.4587 67.2933 22.0053C67.1333 22.6987 67.0533 23.1787 67.0533 23.4453C67.0533 23.7013 67.1226 23.904 67.2613 24.0533C67.4106 24.2027 67.5919 24.288 67.8053 24.3093C67.6986 24.672 67.4586 24.96 67.0853 25.1733C66.7226 25.3867 66.3013 25.4933 65.8213 25.4933ZM72.9085 24.2933C72.5778 25.0933 71.8845 25.4933 70.8285 25.4933C70.2952 25.4933 69.8578 25.3067 69.5165 24.9333C69.2392 24.624 69.1005 24.2933 69.1005 23.9413C69.1005 23.1413 69.2872 21.8667 69.6605 20.1173L70.8285 13.9733L74.0765 13.6533L72.5245 21.7493C72.3432 22.5387 72.2525 23.072 72.2525 23.3493C72.2525 23.9573 72.4712 24.272 72.9085 24.2933ZM77.76 25.4933C75.4133 25.4933 74.24 24.3893 74.24 22.1813C74.24 20.6133 74.672 19.3227 75.536 18.3093C76.4533 17.232 77.7067 16.6933 79.296 16.6933C80.448 16.6933 81.3173 16.96 81.904 17.4933C82.4907 18.0267 82.784 18.8533 82.784 19.9733C82.784 21.68 82.3253 23.0293 81.408 24.0213C80.512 25.0027 79.296 25.4933 77.76 25.4933ZM78.176 18.5333C78.048 18.8213 77.9307 19.184 77.824 19.6213C77.728 20.048 77.616 20.6027 77.488 21.2853C77.36 21.968 77.296 22.7307 77.296 23.5733C77.296 23.8507 77.3387 24.08 77.424 24.2613C77.52 24.4427 77.6907 24.5333 77.936 24.5333C78.1813 24.5333 78.3787 24.4747 78.528 24.3573C78.688 24.24 78.8267 24.0427 78.944 23.7653C79.1573 23.2747 79.3493 22.576 79.52 21.6693C79.6907 20.752 79.7813 20.096 79.792 19.7013C79.8133 19.3067 79.824 18.9653 79.824 18.6773C79.824 18.3787 79.7813 18.1333 79.696 17.9413C79.6107 17.7493 79.4453 17.6533 79.2 17.6533C78.9653 17.6533 78.768 17.728 78.608 17.8773C78.448 18.0267 78.304 18.2453 78.176 18.5333ZM84.4131 24.6933C84.1678 24.416 83.9865 24.0587 83.8691 23.6213C83.7625 23.184 83.7091 22.608 83.7091 21.8933C83.7091 21.1787 83.8318 20.496 84.0771 19.8453C84.3225 19.1947 84.6691 18.6347 85.1171 18.1653C86.0345 17.184 87.2505 16.6933 88.7651 16.6933C89.3091 16.6933 89.7785 16.784 90.1731 16.9653L92.9091 16.6933L91.7251 22.9333C91.6931 23.0613 91.6771 23.2427 91.6771 23.4773C91.6771 23.712 91.7465 23.904 91.8851 24.0533C92.0345 24.2027 92.2158 24.288 92.4291 24.3093C92.3225 24.672 92.0718 24.96 91.6771 25.1733C91.2931 25.3867 90.8825 25.4933 90.4451 25.4933C90.0078 25.4933 89.6398 25.408 89.3411 25.2373C89.0531 25.0773 88.8665 24.8587 88.7811 24.5813C88.6105 24.848 88.3438 25.0667 87.9811 25.2373C87.6185 25.408 87.1918 25.4933 86.7011 25.4933C86.2211 25.4933 85.7838 25.4293 85.3891 25.3013C84.9945 25.1733 84.6691 24.9707 84.4131 24.6933ZM87.7891 18.1973C87.6718 18.3893 87.5598 18.6507 87.4531 18.9813C87.3465 19.3013 87.2025 19.8987 87.0211 20.7733C86.8505 21.6373 86.7651 22.3787 86.7651 22.9973C86.7651 23.616 86.8131 24.016 86.9091 24.1973C87.0051 24.3787 87.1385 24.4693 87.3091 24.4693C87.6505 24.4693 87.9438 24.3093 88.1891 23.9893C88.4451 23.6587 88.6211 23.2053 88.7171 22.6293L89.5651 17.9413C89.3411 17.7493 89.0958 17.6533 88.8291 17.6533C88.5731 17.6533 88.3651 17.696 88.2051 17.7813C88.0558 17.8667 87.9171 18.0053 87.7891 18.1973ZM98.7495 16.6933C99.1335 16.6933 99.4748 16.736 99.7735 16.8213C99.7842 16.7787 99.8002 16.6987 99.8215 16.5813L99.9015 16.0853C99.9442 15.872 99.9975 15.5893 100.062 15.2373L100.318 13.9733L103.502 13.6533L101.726 22.9333C101.715 22.9973 101.71 23.0827 101.71 23.1893V23.4453C101.71 23.68 101.768 23.888 101.885 24.0693C102.003 24.24 102.158 24.3253 102.35 24.3253C102.136 24.8267 101.704 25.184 101.054 25.3973C100.83 25.4613 100.558 25.4933 100.238 25.4933C99.9282 25.4933 99.6295 25.408 99.3415 25.2373C99.0535 25.0773 98.8668 24.8587 98.7815 24.5813C98.6108 24.8587 98.3548 25.0773 98.0135 25.2373C97.6722 25.408 97.2508 25.4933 96.7495 25.4933C96.2588 25.4933 95.8055 25.4293 95.3895 25.3013C94.9842 25.1733 94.6535 24.9707 94.3975 24.6933C93.9282 24.1493 93.6935 23.2587 93.6935 22.0213C93.6935 20.4213 94.1628 19.136 95.1015 18.1653C96.0402 17.184 97.2562 16.6933 98.7495 16.6933ZM98.6375 17.6533C98.2428 17.6533 97.9388 17.8667 97.7255 18.2933C97.5122 18.72 97.2935 19.4613 97.0695 20.5173C96.8562 21.5733 96.7495 22.576 96.7495 23.5253C96.7495 24.176 96.9415 24.5013 97.3255 24.5013C97.6668 24.5013 97.9548 24.3307 98.1895 23.9893C98.4348 23.648 98.6055 23.1947 98.7015 22.6293L99.5655 17.9413C99.3415 17.7493 99.0322 17.6533 98.6375 17.6533ZM115.358 21.8613C115.636 22.064 115.774 22.384 115.774 22.8213C115.774 23.248 115.678 23.616 115.486 23.9253C115.305 24.224 115.033 24.4907 114.67 24.7253C113.892 25.2267 112.82 25.4773 111.454 25.4773C110.1 25.4773 109.049 25.1253 108.302 24.4213C107.566 23.7067 107.198 22.72 107.198 21.4613C107.198 19.68 107.662 18.112 108.59 16.7573C109.294 15.7547 110.276 15.04 111.534 14.6133C112.185 14.4 112.83 14.2933 113.47 14.2933C114.11 14.2933 114.628 14.336 115.022 14.4213C115.417 14.5067 115.764 14.6347 116.062 14.8053C116.713 15.1787 117.038 15.664 117.038 16.2613C117.038 16.8053 116.782 17.28 116.27 17.6853C115.801 18.048 115.374 18.2293 114.99 18.2293C114.606 18.2293 114.334 18.2027 114.174 18.1493C114.217 17.7653 114.238 17.4507 114.238 17.2053C114.238 16.9493 114.233 16.7307 114.222 16.5493C114.212 16.368 114.18 16.192 114.126 16.0213C114.02 15.6267 113.801 15.4293 113.47 15.4293C113.15 15.4293 112.825 15.584 112.494 15.8933C112.174 16.192 111.876 16.5973 111.598 17.1093C110.969 18.272 110.654 19.5413 110.654 20.9173C110.654 21.5787 110.841 22.1013 111.214 22.4853C111.588 22.8587 112.174 23.0453 112.974 23.0453C113.572 23.0453 114.153 22.848 114.718 22.4533C114.964 22.2827 115.177 22.0853 115.358 21.8613ZM117.404 22.8053C117.404 22.3893 117.457 21.9147 117.564 21.3813L118.86 14.6133H122.396L121.116 21.4293C121.02 21.9307 120.972 22.368 120.972 22.7413C120.972 23.104 121.047 23.3813 121.196 23.5733C121.356 23.7653 121.58 23.8613 121.868 23.8613C122.156 23.8613 122.391 23.824 122.572 23.7493C122.753 23.6747 122.919 23.5467 123.068 23.3653C123.356 23.0027 123.591 22.3573 123.772 21.4293L125.068 14.6133H127.484L126.204 21.4133C125.905 22.928 125.345 23.9893 124.524 24.5973C123.724 25.1947 122.535 25.4933 120.956 25.4933C119.772 25.4933 118.865 25.2373 118.236 24.7253C117.681 24.2773 117.404 23.6373 117.404 22.8053ZM134.702 25.4933C133.337 25.4933 132.59 24.5227 132.462 22.5813H129.71C129.497 23.072 129.316 23.5307 129.166 23.9573L128.75 25.1733H126.51L131.55 14.6133H134.99L135.662 22.3893C135.769 23.5093 136.036 24.2347 136.462 24.5653C136.153 25.184 135.566 25.4933 134.702 25.4933ZM130.206 21.4133H132.414L132.222 17.3013V16.8693L131.086 19.3813L130.206 21.4133ZM137.285 25.1733L139.205 14.6133H142.645L145.141 21.8773L146.469 14.6133L148.245 14.6293L146.293 25.1733H142.629L140.325 18.1813L139.045 25.1733H137.285ZM158.968 25.4933C157.603 25.4933 156.856 24.5227 156.728 22.5813H153.976C153.763 23.072 153.581 23.5307 153.432 23.9573L153.016 25.1733H150.776L155.816 14.6133H159.256L159.928 22.3893C160.035 23.5093 160.301 24.2347 160.728 24.5653C160.419 25.184 159.832 25.4933 158.968 25.4933ZM154.472 21.4133H156.68L156.488 17.3013V16.8693L155.352 19.3813L154.472 21.4133ZM167.919 14.5013C170.532 14.5013 171.839 15.424 171.839 17.2693C171.839 18.2827 171.513 19.0933 170.863 19.7013C170.223 20.3093 169.343 20.6133 168.223 20.6133C167.7 20.6133 167.236 20.464 166.831 20.1653C166.639 20.0373 166.479 19.888 166.351 19.7173C167.129 19.7173 167.721 19.4827 168.127 19.0133C168.543 18.5333 168.751 17.8293 168.751 16.9013C168.751 15.9733 168.292 15.5093 167.375 15.5093H166.991C166.927 15.5093 166.868 15.5147 166.815 15.5253L164.975 25.1733H161.503L163.471 14.6933C164.612 14.5867 165.513 14.528 166.175 14.5173C166.836 14.5067 167.417 14.5013 167.919 14.5013ZM171.769 25.1733L173.593 15.4453L173.769 14.6133H177.193L175.177 25.1733H171.769ZM181.673 24.2293C181.385 25.072 180.686 25.4933 179.577 25.4933C178.755 25.4933 178.062 25.0027 177.497 24.0213C176.921 23.04 176.579 21.7493 176.473 20.1493C177.646 18.0053 178.638 16.4907 179.449 15.6053C180.227 14.7627 181.022 14.3413 181.833 14.3413C182.27 14.3413 182.643 14.4587 182.953 14.6933C183.273 14.928 183.47 15.232 183.545 15.6053C183.182 15.7547 182.915 15.888 182.745 16.0053C182.318 16.3253 181.817 16.8427 181.241 17.5573L179.785 19.3013C179.55 19.5787 179.385 19.7813 179.289 19.9093C179.449 20.8053 179.769 21.696 180.249 22.5813C180.707 23.424 181.182 23.9733 181.673 24.2293Z" fill="white"/>
</g>
<defs>
<filter id="filter0_i_5317_917" x="0" y="0.17334" width="211" height="43" filterUnits="userSpaceOnUse" color-interpolation-filters="sRGB">
<feFlood flood-opacity="0" result="BackgroundImageFix"/>
<feBlend mode="normal" in="SourceGraphic" in2="BackgroundImageFix" result="shape"/>
<feColorMatrix in="SourceAlpha" type="matrix" values="0 0 0 0 0 0 0 0 0 0 0 0 0 0 0 0 0 0 127 0" result="hardAlpha"/>
<feOffset dx="7" dy="4"/>
<feGaussianBlur stdDeviation="2"/>
<feComposite in2="hardAlpha" operator="arithmetic" k2="-1" k3="1"/>
<feColorMatrix type="matrix" values="0 0 0 0 0.42467 0 0 0 0 0.760329 0 0 0 0 0.968982 0 0 0 0.25 0"/>
<feBlend mode="normal" in2="shape" result="effect1_innerShadow_5317_917"/>
</filter>
</defs>
</svg>
