<svg width="92" height="40" viewBox="0 0 92 40" fill="none" xmlns="http://www.w3.org/2000/svg">
<g filter="url(#filter0_i_5317_967)">
<rect y="0.116211" width="92" height="39" rx="19.5" fill="#1A748E"/>
<path d="M31.104 22.6522C31.3067 22.9082 31.408 23.2442 31.408 23.6602C31.408 24.2362 31.1947 24.6789 30.768 24.9882C30.3413 25.2869 29.792 25.4362 29.12 25.4362C28.736 25.4362 28.2507 25.3935 27.664 25.3082C26.512 25.1269 25.76 25.0362 25.408 25.0362C25.056 25.0362 24.8107 25.0469 24.672 25.0682C24.5333 25.0789 24.352 25.0949 24.128 25.1162L26.096 14.5562H32.992C32.992 15.2069 32.832 15.7029 32.512 16.0442C32.2027 16.3855 31.7387 16.5562 31.12 16.5562C30.5013 16.5562 29.8773 16.4122 29.248 16.1242L28.752 18.9242H31.6C31.6 19.4895 31.4613 19.9322 31.184 20.2522C30.9067 20.5615 30.5333 20.7162 30.064 20.7162C29.6053 20.7162 29.232 20.6629 28.944 20.5562C28.656 20.4495 28.496 20.3802 28.464 20.3482L27.888 23.3722C28.144 23.4042 28.512 23.4202 28.992 23.4202C29.8133 23.4202 30.5173 23.1642 31.104 22.6522ZM44.4014 25.4362C43.1107 25.4362 42.4654 24.9349 42.4654 23.9322C42.4654 23.4949 42.556 22.8549 42.7374 22.0122C42.9294 21.1589 43.0574 20.5615 43.1214 20.2202C43.2707 19.4415 43.3454 18.9295 43.3454 18.6842C43.3454 18.1402 43.1427 17.8682 42.7374 17.8682C42.4707 17.8682 42.2094 18.0549 41.9534 18.4282C41.6974 18.7909 41.5107 19.3402 41.3934 20.0762L40.4014 25.1162L37.2814 25.4362L38.1454 21.0842C38.2414 20.6042 38.332 20.0922 38.4174 19.5482C38.5027 19.0042 38.5454 18.6895 38.5454 18.6042C38.5454 18.1135 38.364 17.8682 38.0014 17.8682C37.756 17.8682 37.5 18.0495 37.2334 18.4122C36.9667 18.7749 36.7587 19.3295 36.6094 20.0762L35.6334 25.1162L32.4814 25.4362L34.1614 16.9562L36.7694 16.6362L36.4974 18.2522C36.7747 17.6762 37.1694 17.2655 37.6814 17.0202C38.1934 16.7642 38.8494 16.6362 39.6494 16.6362C40.108 16.6362 40.4867 16.7482 40.7854 16.9722C41.084 17.1962 41.2814 17.4895 41.3774 17.8522C41.5587 17.4789 41.8787 17.1855 42.3374 16.9722C42.8067 16.7482 43.324 16.6362 43.8894 16.6362C44.4654 16.6362 44.892 16.7002 45.1694 16.8282C45.4574 16.9455 45.6867 17.1055 45.8574 17.3082C46.1454 17.6815 46.2894 18.2095 46.2894 18.8922C46.2894 19.5642 46.1454 20.5989 45.8574 21.9962C45.708 22.6789 45.6334 23.1482 45.6334 23.4042C45.6334 23.6495 45.7027 23.8469 45.8414 23.9962C45.9907 24.1455 46.172 24.2309 46.3854 24.2522C46.2787 24.6149 46.0387 24.9029 45.6654 25.1162C45.3027 25.3295 44.8814 25.4362 44.4014 25.4362ZM48.3038 24.6362C48.0584 24.3589 47.8771 24.0015 47.7598 23.5642C47.6531 23.1269 47.5998 22.5509 47.5998 21.8362C47.5998 21.1215 47.7224 20.4389 47.9678 19.7882C48.2131 19.1375 48.5598 18.5775 49.0078 18.1082C49.9251 17.1269 51.1411 16.6362 52.6558 16.6362C53.1998 16.6362 53.6691 16.7269 54.0638 16.9082L56.7998 16.6362L55.6158 22.8762C55.5838 23.0042 55.5677 23.1855 55.5677 23.4202C55.5677 23.6549 55.6371 23.8469 55.7758 23.9962C55.9251 24.1455 56.1064 24.2309 56.3198 24.2522C56.2131 24.6149 55.9624 24.9029 55.5677 25.1162C55.1838 25.3295 54.7731 25.4362 54.3358 25.4362C53.8984 25.4362 53.5304 25.3509 53.2318 25.1802C52.9438 25.0202 52.7571 24.8015 52.6718 24.5242C52.5011 24.7909 52.2344 25.0095 51.8718 25.1802C51.5091 25.3509 51.0824 25.4362 50.5918 25.4362C50.1118 25.4362 49.6744 25.3722 49.2798 25.2442C48.8851 25.1162 48.5598 24.9135 48.3038 24.6362ZM51.6798 18.1402C51.5624 18.3322 51.4504 18.5935 51.3438 18.9242C51.2371 19.2442 51.0931 19.8415 50.9118 20.7162C50.7411 21.5802 50.6558 22.3215 50.6558 22.9402C50.6558 23.5589 50.7038 23.9589 50.7998 24.1402C50.8958 24.3215 51.0291 24.4122 51.1998 24.4122C51.5411 24.4122 51.8344 24.2522 52.0798 23.9322C52.3358 23.6015 52.5118 23.1482 52.6078 22.5722L53.4558 17.8842C53.2318 17.6922 52.9864 17.5962 52.7198 17.5962C52.4638 17.5962 52.2558 17.6389 52.0958 17.7242C51.9464 17.8095 51.8078 17.9482 51.6798 18.1402ZM61.5026 24.2362C61.172 25.0362 60.4786 25.4362 59.4226 25.4362C58.8786 25.4362 58.436 25.2495 58.0946 24.8762C57.8066 24.5455 57.6626 24.2149 57.6626 23.8842C57.6626 23.0202 57.86 21.7455 58.2546 20.0602L58.8466 16.9562L62.0946 16.6362L61.1186 21.6922C60.9373 22.4815 60.8466 23.0149 60.8466 23.2922C60.8466 23.9002 61.0653 24.2149 61.5026 24.2362ZM59.1346 14.7322C59.1346 14.3162 59.3053 13.9962 59.6466 13.7722C59.9986 13.5482 60.4253 13.4362 60.9266 13.4362C61.428 13.4362 61.828 13.5482 62.1266 13.7722C62.436 13.9962 62.5906 14.3162 62.5906 14.7322C62.5906 15.1482 62.42 15.4629 62.0786 15.6762C61.748 15.8895 61.332 15.9962 60.8306 15.9962C60.3293 15.9962 59.9186 15.8895 59.5986 15.6762C59.2893 15.4629 59.1346 15.1482 59.1346 14.7322ZM66.6898 24.2362C66.3591 25.0362 65.6658 25.4362 64.6098 25.4362C64.0764 25.4362 63.6391 25.2495 63.2978 24.8762C63.0204 24.5669 62.8818 24.2362 62.8818 23.8842C62.8818 23.0842 63.0684 21.8095 63.4418 20.0602L64.6098 13.9162L67.8578 13.5962L66.3058 21.6922C66.1244 22.4815 66.0338 23.0149 66.0338 23.2922C66.0338 23.9002 66.2524 24.2149 66.6898 24.2362Z" fill="white"/>
</g>
<defs>
<filter id="filter0_i_5317_967" x="0" y="0.116211" width="96" height="43" filterUnits="userSpaceOnUse" color-interpolation-filters="sRGB">
<feFlood flood-opacity="0" result="BackgroundImageFix"/>
<feBlend mode="normal" in="SourceGraphic" in2="BackgroundImageFix" result="shape"/>
<feColorMatrix in="SourceAlpha" type="matrix" values="0 0 0 0 0 0 0 0 0 0 0 0 0 0 0 0 0 0 127 0" result="hardAlpha"/>
<feOffset dx="7" dy="4"/>
<feGaussianBlur stdDeviation="2"/>
<feComposite in2="hardAlpha" operator="arithmetic" k2="-1" k3="1"/>
<feColorMatrix type="matrix" values="0 0 0 0 0.42467 0 0 0 0 0.760329 0 0 0 0 0.968982 0 0 0 0.25 0"/>
<feBlend mode="normal" in2="shape" result="effect1_innerShadow_5317_967"/>
</filter>
</defs>
</svg>
