<svg width="126" height="40" viewBox="0 0 126 40" fill="none" xmlns="http://www.w3.org/2000/svg">
<g filter="url(#filter0_i_5317_821)">
<rect y="0.116333" width="126" height="39" rx="19.5" fill="#1A748E"/>
<path d="M30.512 17.7243C30.672 17.4043 30.752 17.095 30.752 16.7963C30.752 16.4977 30.736 16.2683 30.704 16.1083C30.672 15.9377 30.6187 15.7883 30.544 15.6603C30.384 15.383 30.144 15.2443 29.824 15.2443C29.4293 15.2443 29.072 15.3883 28.752 15.6763C28.4107 15.975 28.24 16.359 28.24 16.8283C28.24 17.127 28.3413 17.3937 28.544 17.6283C28.7573 17.8523 29.024 18.071 29.344 18.2843C29.664 18.4977 30.0053 18.711 30.368 18.9243C30.7307 19.1377 31.072 19.3723 31.392 19.6283C32.128 20.215 32.496 20.903 32.496 21.6923C32.496 22.2257 32.352 22.7217 32.064 23.1803C31.7867 23.6283 31.4133 24.0177 30.944 24.3483C29.92 25.0737 28.7307 25.4363 27.376 25.4363C26.2773 25.4363 25.4453 25.2603 24.88 24.9083C24.3147 24.5457 24.032 24.0923 24.032 23.5483C24.032 22.5777 24.4107 21.9697 25.168 21.7243C25.3813 21.6497 25.648 21.6123 25.968 21.6123C26.2987 21.6123 26.6507 21.6817 27.024 21.8203C26.8533 22.2577 26.768 22.6737 26.768 23.0683C26.768 23.9217 27.072 24.3483 27.68 24.3483C28.0747 24.3483 28.432 24.2043 28.752 23.9163C29.0827 23.6283 29.248 23.3243 29.248 23.0043C29.248 22.6737 29.1413 22.391 28.928 22.1563C28.7253 21.9217 28.4693 21.7137 28.16 21.5323C27.8507 21.3403 27.5147 21.1537 27.152 20.9723C26.8 20.791 26.4693 20.5723 26.16 20.3163C25.4347 19.7297 25.072 18.967 25.072 18.0283C25.072 17.4203 25.2213 16.8817 25.52 16.4123C25.8187 15.9323 26.208 15.5323 26.688 15.2123C27.648 14.5617 28.7147 14.2363 29.888 14.2363C31.072 14.2363 31.9467 14.4123 32.512 14.7643C33.088 15.1163 33.376 15.591 33.376 16.1883C33.376 16.711 33.1733 17.1377 32.768 17.4683C32.416 17.7457 32.0267 17.8843 31.6 17.8843C31.1733 17.8843 30.8107 17.831 30.512 17.7243ZM33.9655 23.5163C33.9655 23.2283 34.0402 22.7217 34.1895 21.9963L35.0375 17.6763H34.0935L34.1575 17.1963C35.4375 16.8123 36.6962 16.151 37.9335 15.2123H38.7015L38.3175 16.9563H39.5655L39.4215 17.6763H38.1895L37.3735 21.9963C37.2348 22.6577 37.1655 23.1003 37.1655 23.3243C37.1655 23.8363 37.3895 24.1457 37.8375 24.2523C37.7308 24.615 37.4855 24.903 37.1015 25.1163C36.7175 25.3297 36.2535 25.4363 35.7095 25.4363C35.1655 25.4363 34.7388 25.2657 34.4295 24.9243C34.1202 24.583 33.9655 24.1137 33.9655 23.5163ZM40.1163 24.6363C39.8709 24.359 39.6896 24.0017 39.5723 23.5643C39.4656 23.127 39.4123 22.551 39.4123 21.8363C39.4123 21.1217 39.5349 20.439 39.7803 19.7883C40.0256 19.1377 40.3723 18.5777 40.8203 18.1083C41.7376 17.127 42.9536 16.6363 44.4683 16.6363C45.0123 16.6363 45.4816 16.727 45.8763 16.9083L48.6123 16.6363L47.4283 22.8763C47.3963 23.0043 47.3802 23.1857 47.3802 23.4203C47.3802 23.655 47.4496 23.847 47.5883 23.9963C47.7376 24.1457 47.9189 24.231 48.1323 24.2523C48.0256 24.615 47.7749 24.903 47.3802 25.1163C46.9963 25.3297 46.5856 25.4363 46.1483 25.4363C45.7109 25.4363 45.3429 25.351 45.0443 25.1803C44.7563 25.0203 44.5696 24.8017 44.4843 24.5243C44.3136 24.791 44.0469 25.0097 43.6843 25.1803C43.3216 25.351 42.8949 25.4363 42.4043 25.4363C41.9243 25.4363 41.4869 25.3723 41.0923 25.2443C40.6976 25.1163 40.3723 24.9137 40.1163 24.6363ZM43.4923 18.1403C43.3749 18.3323 43.2629 18.5937 43.1562 18.9243C43.0496 19.2443 42.9056 19.8417 42.7243 20.7163C42.5536 21.5803 42.4683 22.3217 42.4683 22.9403C42.4683 23.559 42.5163 23.959 42.6123 24.1403C42.7083 24.3217 42.8416 24.4123 43.0123 24.4123C43.3536 24.4123 43.6469 24.2523 43.8923 23.9323C44.1483 23.6017 44.3243 23.1483 44.4203 22.5723L45.2683 17.8843C45.0443 17.6923 44.7989 17.5963 44.5323 17.5963C44.2763 17.5963 44.0683 17.639 43.9083 17.7243C43.7589 17.8097 43.6203 17.9483 43.4923 18.1403ZM54.4831 20.6203C54.8671 19.9377 55.0591 19.2497 55.0591 18.5563C55.0591 18.0977 54.8938 17.8683 54.5631 17.8683C54.3071 17.8683 54.0458 18.087 53.7791 18.5243C53.5018 18.9617 53.3205 19.463 53.2351 20.0283L52.4031 25.1163L49.0911 25.4363L50.7231 16.9563L53.3631 16.6363L53.0751 18.2523C53.5978 17.175 54.4458 16.6363 55.6191 16.6363C56.2378 16.6363 56.7125 16.7963 57.0431 17.1163C57.3845 17.4363 57.5551 17.927 57.5551 18.5883C57.5551 19.239 57.3365 19.7723 56.8991 20.1883C56.4725 20.6043 55.8911 20.8123 55.1551 20.8123C54.8351 20.8123 54.6111 20.7483 54.4831 20.6203ZM58.0749 23.5163C58.0749 23.2283 58.1495 22.7217 58.2989 21.9963L59.1469 17.6763H58.2029L58.2669 17.1963C59.5469 16.8123 60.8055 16.151 62.0429 15.2123H62.8109L62.4269 16.9563H63.6749L63.5309 17.6763H62.2989L61.4829 21.9963C61.3442 22.6577 61.2749 23.1003 61.2749 23.3243C61.2749 23.8363 61.4989 24.1457 61.9469 24.2523C61.8402 24.615 61.5949 24.903 61.2109 25.1163C60.8269 25.3297 60.3629 25.4363 59.8189 25.4363C59.2749 25.4363 58.8482 25.2657 58.5389 24.9243C58.2295 24.583 58.0749 24.1137 58.0749 23.5163ZM66.785 25.1163L68.705 14.5563H72.145L74.641 21.8203L75.969 14.5563L77.745 14.5723L75.793 25.1163H72.129L69.825 18.1243L68.545 25.1163H66.785ZM81.635 25.4363C79.2883 25.4363 78.115 24.3323 78.115 22.1243C78.115 20.5563 78.547 19.2657 79.411 18.2523C80.3283 17.175 81.5817 16.6363 83.171 16.6363C84.323 16.6363 85.1923 16.903 85.779 17.4363C86.3657 17.9697 86.659 18.7963 86.659 19.9163C86.659 21.623 86.2003 22.9723 85.283 23.9643C84.387 24.9457 83.171 25.4363 81.635 25.4363ZM82.051 18.4763C81.923 18.7643 81.8057 19.127 81.699 19.5643C81.603 19.991 81.491 20.5457 81.363 21.2283C81.235 21.911 81.171 22.6737 81.171 23.5163C81.171 23.7937 81.2137 24.023 81.299 24.2043C81.395 24.3857 81.5657 24.4763 81.811 24.4763C82.0563 24.4763 82.2537 24.4177 82.403 24.3003C82.563 24.183 82.7017 23.9857 82.819 23.7083C83.0323 23.2177 83.2243 22.519 83.395 21.6123C83.5657 20.695 83.6563 20.039 83.667 19.6443C83.6883 19.2497 83.699 18.9083 83.699 18.6203C83.699 18.3217 83.6563 18.0763 83.571 17.8843C83.4857 17.6923 83.3203 17.5963 83.075 17.5963C82.8403 17.5963 82.643 17.671 82.483 17.8203C82.323 17.9697 82.179 18.1883 82.051 18.4763ZM99.4268 22.4443C98.7228 23.415 98.0294 24.1563 97.3468 24.6683C96.6748 25.1803 95.9868 25.4363 95.2828 25.4363C94.5894 25.4363 94.1201 25.367 93.8748 25.2283V21.7083C93.2668 23.3297 92.4188 24.455 91.3307 25.0843C90.9361 25.319 90.5521 25.4363 90.1788 25.4363C89.4641 25.4363 88.9521 25.367 88.6428 25.2283C88.5681 22.7857 88.4988 21.2283 88.4348 20.5563C88.3708 19.8737 88.3121 19.3243 88.2588 18.9083C88.1521 18.0763 87.9174 17.4897 87.5548 17.1483C88.0134 16.807 88.5628 16.6363 89.2028 16.6363C90.4401 16.6363 91.1441 17.4043 91.3148 18.9403C91.3574 19.303 91.3788 19.6763 91.3788 20.0603C91.3788 20.6363 91.3148 21.927 91.1868 23.9323C91.4428 23.815 91.7041 23.5483 91.9708 23.1323C92.2481 22.7057 92.4988 22.2043 92.7228 21.6283C93.2241 20.295 93.4748 19.0523 93.4748 17.9003C93.4748 17.719 93.4481 17.5323 93.3948 17.3403C93.3521 17.1483 93.3041 17.0257 93.2508 16.9723C93.6241 16.7483 94.0934 16.6363 94.6588 16.6363C95.2348 16.6363 95.6561 16.8337 95.9228 17.2283C96.2001 17.6123 96.3761 18.1617 96.4508 18.8763C96.5361 19.783 96.5788 20.5083 96.5788 21.0523C96.5788 21.8097 96.5414 22.7483 96.4668 23.8683C97.0001 23.4843 97.4854 22.663 97.9228 21.4043C98.3601 20.1457 98.5788 19.0683 98.5788 18.1723C98.5788 17.7777 98.5468 17.463 98.4828 17.2283C98.8348 16.8337 99.3148 16.6363 99.9228 16.6363C100.296 16.6363 100.616 16.7377 100.883 16.9403C101.16 17.143 101.299 17.4363 101.299 17.8203C101.299 18.1937 101.24 18.583 101.123 18.9883C101.016 19.3937 100.872 19.8043 100.691 20.2203C100.339 21.0523 99.9174 21.7937 99.4268 22.4443Z" fill="white"/>
</g>
<defs>
<filter id="filter0_i_5317_821" x="0" y="0.116333" width="130" height="43" filterUnits="userSpaceOnUse" color-interpolation-filters="sRGB">
<feFlood flood-opacity="0" result="BackgroundImageFix"/>
<feBlend mode="normal" in="SourceGraphic" in2="BackgroundImageFix" result="shape"/>
<feColorMatrix in="SourceAlpha" type="matrix" values="0 0 0 0 0 0 0 0 0 0 0 0 0 0 0 0 0 0 127 0" result="hardAlpha"/>
<feOffset dx="7" dy="4"/>
<feGaussianBlur stdDeviation="2"/>
<feComposite in2="hardAlpha" operator="arithmetic" k2="-1" k3="1"/>
<feColorMatrix type="matrix" values="0 0 0 0 0.42467 0 0 0 0 0.760329 0 0 0 0 0.968982 0 0 0 0.25 0"/>
<feBlend mode="normal" in2="shape" result="effect1_innerShadow_5317_821"/>
</filter>
</defs>
</svg>
